<?xml version="1.0" encoding="utf-8"?>

<!DOCTYPE svg PUBLIC "-//W3C//DTD SVG 1.1//EN" "http://www.w3.org/Graphics/SVG/1.1/DTD/svg11.dtd">
<svg version="1.1" id="Layer_1" xmlns="http://www.w3.org/2000/svg" xmlns:xlink="http://www.w3.org/1999/xlink" x="0px" y="0px"
	 viewBox="0 0 1776.4039 1693.5824" enable-background="new 0 0 1776.4039 1693.5824" xml:space="preserve">
<g>
	<path d="M770.173,1100.7435c-0.2864-0.0427-0.5729-0.0861-0.8593-0.129c0.2893,0.0471,0.5786,0.0945,0.8679,0.1416
		C770.1787,1100.752,770.1758,1100.7478,770.173,1100.7435z"/>
	<path d="M773.9736,1101.375c-1.2632-0.2076-2.5281-0.4127-3.792-0.6189C770.9084,1101.834,772.2175,1102.7925,773.9736,1101.375z"
		/>
	<path d="M774.6416,1101.4692c-0.0088,0.103,0.0896,0.6877-0.1226,1.3369c0.2083-0.6423,0.4164-1.2849,0.6246-1.9272
		C774.984,1101.1541,774.8167,1101.3635,774.6416,1101.4692z"/>
	<path d="M688.8052,1017.6118c3.5005-5.9648,8.5537-10.9307,14.0081-15.1142c12.8138-9.828,28.4261-15.7801,43.2947-21.75
		c15.5613-6.248,31.2969-12.0675,47.1014-17.6691c6.2247-2.2063,12.4628-4.377,18.7242-6.4771
		c2.6931-0.9033,9.3997-1.9377,10.9885-4.0938c-2.392-0.7615-7.8523,2.0499-10.4097,2.8544
		c-6.1711,1.9414-12.3655,3.8101-18.5696,5.644c-16.0376,4.7408-32.1476,9.2621-48.3636,13.3541
		c-15.4711,3.904-31.5175,8.2847-47.5831,8.184c-7.1282-0.0447-14.4155-0.9731-21.0503-3.6969
		c-2.0234-0.8307-7.5261-5.4442-9.0938-4.0859c8.375,5.8224,9.8486,15.3306,1.3374,21.9809
		c-9.697,7.5766-22.8491,11.5703-34.2239,15.7814c-15.7271,5.8224-31.6437,11.1216-47.5878,16.3288
		c35.8763-11.6688,72.1869-23.3843,108.1793-35.048c-0.2847,0.1046-0.5728,0.2026-0.8572,0.3078
		c-33.9683,11.0068-68.2529,22.1673-102.1965,33.1452c15.7429-5.0508,31.5309-9.9672,47.4855-14.2833
		c10.9523-2.9629,25.7205-8.4672,37.166-5.4172c8.2646,2.2025,9.6221,10.8237,7.1353,17.9547
		C686.4365,1025.6986,687.7202,1019.4607,688.8052,1017.6118z"/>
	<path d="M665.6733,1156.3506c-4.5988,1.9663-15.6108,7.2114-19.75,1.5575c-2.4762-3.3826-0.7063-8.0104,0.4285-11.5115
		c-0.4388,0.1527-0.9745,0.2814-1.4133,0.5284c-3.6145,11.8416-13.8537,21.9979-22.6559,30.0994
		c-14.7637,13.5885-31.9012,24.5847-48.6188,35.5781c-17.8116,11.7126-35.8433,23.0969-54.0189,34.2358
		c-5.3033,3.25-10.6338,6.4512-15.9763,9.636c-2.5358,1.5118-9.0292,3.8059-10.1235,6.6584
		c24.4155-14.6116,48.9974-28.9211,74.0453-42.4301c12.8237-6.9161,25.8793-14.5553,39.6517-19.4609
		c4.2804-1.5245,13.4473-4.9376,17.0425-0.1432c1.8842,2.5127,1.1489,6.2559,0.1823,8.988c2.8881-1.3816,3.488-6.6598,4.9357-9.3489
		c3.8091-7.0757,8.9741-13.4038,14.563-19.1411c13.6477-14.0106,30.4705-24.7732,46.8134-35.3433
		c14.2318-9.2047,28.6473-18.1206,43.1401-26.9111c-9.3933,5.4171-18.8213,10.7634-28.2264,16.0842
		C692.6372,1142.8124,679.4863,1150.4443,665.6733,1156.3506z"/>
	<path d="M578.5699,852.9c22.9704,2.9109,45.9413,5.8217,68.9274,8.607c10.4418,1.2653,20.8877,2.5101,31.3452,3.6381
		c1.1348,0.1224,4.5493,0.658,8.5212,1.1895c-11.5674,0.9442-23.1405,2.0612-34.699,3.2823
		c11.9316-0.9951,23.8574-2.0648,35.7811-3.1396c0.3523,0.0458,0.7067,0.0911,1.0641,0.1359
		c-0.2928,0.1159-0.5892,0.2335-0.8745,0.3453c-8.3585,3.2779-16.4634,7.2699-24.5322,11.1998
		c-34.4529,16.7803-68.241,34.9191-103.0803,50.8901c-12.7055,5.8244-25.5812,11.3531-38.7974,15.9224
		c-12.112,4.1875-24.8966,8.0078-37.8354,7.8009c-14.7048-0.2351-29.098-5.123-42.1226-11.6863
		c-4.8691-2.4536-9.606-5.1808-14.1593-8.1809c-1.588-1.0463-4.2227-3.9717-6.1858-3.1312
		c9.8362,7.1759,19.6727,14.3514,29.5091,21.5271c20.383,14.8695,40.766,29.739,61.1489,44.6085
		c8.4514,6.1653,16.9028,12.3307,25.3541,18.496c6.8018,4.9619,13.6035,9.9238,20.4053,14.8857
		c2.5833,1.8844,5.1664,3.7689,7.7496,5.6533c1.6673,1.2163,3.7122-1.526,4.98-2.6531c17.9398-15.9493,33.1605-35.798,49.19-53.6059
		c10.8294-12.0309,21.8093-23.9347,33.0718-35.5624c15.7419-16.2521,33.0862-34.8333,53.978-44.3835
		c13.0219-5.9526,27.166-3.5182,39.8739,2.0712c5.35,2.3531,10.8063,5.1511,15.5422,8.6059
		c1.6219,1.1833,5.257,5.1652,7.0856,3.9805c-11.2891-9.4177-24.0291-17.5293-35.9008-26.1898
		c-5.536-4.0386-11.0721-8.0771-16.608-12.1157c8.8068,0,17.6135,0,26.4204,0c9.7942,0,19.5886,0,29.3829,0
		c2.9902,0,17.1342,0.9271,17.9342-0.48c-1.1694-1.3392-5.9526-0.48-7.8564-0.48c-4.3098,0-8.7245-0.6082-12.968-1.3055
		c-10.8242-1.7784-21.9026-5.3203-30.4421-12.4481c-8.4987-7.0937-13.0457-17.7137-16.676-27.9026
		c-4.1028-11.5148-7.0437-23.4371-9.5872-35.3817c-3.2002-15.0284-5.7424-30.2123-8.1636-45.3843
		c-3.8389-24.0567-6.8395-48.245-10.806-72.2809c-0.2911-1.7646-2.0464-18.5912-4.5623-21.9904
		c0.0297,0.0273,0.0515,0.0521,0.0841,0.0803c4.6887,6.4795,9.4033,12.9842,14.1279,19.4986
		c-4.7013-6.5069-9.4233-12.998-14.1274-19.4982c0.0046,0.0042,0.0073,0.0077,0.0122,0.0118
		c4.075,5.5865,8.1406,11.1819,12.218,16.7693c-4.0789-5.6036-8.1533-11.1973-12.2178-16.7691
		c1.5768,1.3513,6.3571,3.6719,7.1644,4.092c30.8116,16.0308,63.369,28.6188,94.8992,43.278
		c-1.4847-0.8239-2.2953-1.4501-2.1827-1.7964c3.9631-12.1957,13.6211-18.8414,26.4949-15.9421
		c8.8783,1.9048,17.3938,5.9883,25.5525,9.8501c15.1669,7.1793,29.7581,15.4204,44.4645,23.4666
		c0.4154,0.3823,0.8324,0.7578,1.2487,1.1206c-0.8665,0.4428-1.7327,0.8864-2.5981,1.3312c0.8752-0.436,1.7507-0.8712,2.626-1.3074
		c0.0349,0.0303,0.0695,0.0593,0.1042,0.0895c-0.0745,0.1791-0.1501,0.3577-0.2245,0.5369
		c-0.1414,0.1869-0.2858,0.3723-0.4254,0.5601c0.092-0.0674,0.1837-0.1342,0.2761-0.2032c-0.1179,0.2847-0.239,0.5684-0.3567,0.8531
		c-0.2937,0.2356-0.5896,0.4667-0.8896,0.6903c0.3188-0.4491,0.6406-0.8964,0.9702-1.3401
		c-0.8282,0.6067-1.6348,1.1427-2.3944,1.5718c0.1298,0.1682,0.2642,0.3339,0.3964,0.5009
		c-1.5305,1.0461-3.1382,1.9337-4.8113,2.6609c-0.137-0.4217-0.2742-0.8434-0.4111-1.2651
		c0.0399,0.3845,0.1433,0.8379,0.2837,1.3214c-3.175,1.3612-6.5776,2.1471-10.1548,2.2239
		c-9.842,0.2114-19.7979-2.6741-29.0857-5.6291c-2.8342-0.9017-27.5876-9.8076-41.5656-15.8414
		c3.056,1.4636,6.1047,2.9422,9.1346,4.4586c10.8805,5.4454,21.6348,11.2071,31.9043,17.7437
		c9.1462,5.8217,18.8496,12.3505,25.4115,21.1508c8.0055,10.5021,8.89,24.6318,7.3365,37.2843
		c-0.6265,5.102-1.5132,10.3914-3.106,15.2932c-0.6204,1.909-3.2712,6.5916-1.5784,7.9637
		c5.4363-13.6367,9.1787-28.2481,13.7134-42.2036c1.9878-6.1178,3.9756-12.2356,5.9635-18.3533
		c2.6097,8.0312,5.2191,16.0625,7.8287,24.0938c3.0269,9.3151,6.0537,18.6302,9.0804,27.9454
		c0.9241,2.8439,4.413,16.582,5.9987,16.9084c0.8762-1.4656-1.2583-5.426-1.8171-7.1457c-1.0754-3.3097-1.787-6.7794-2.4138-10.1981
		c-1.9302-10.5261-2.4495-21.7419,0.6355-32.1037c6.7299-22.6046,33.4695-36.6882,52.4304-47.7042
		c13.5952-7.8986,27.5704-15.1736,41.5701-22.3273c21.6931-11.0848,43.7703-21.4132,65.4039-32.6132
		c1.7688-0.9157,20.7296-9.3223,19.8079-12.1592c-2.3141-7.1216-4.6281-14.2433-6.942-21.3649
		c-15.0835-46.4205-30.1694-92.8401-45.2505-139.2615c-1.8363,1.8994,2.5546,12.819,3.0759,15.3543
		c1.882,9.1522,2.927,18.5244,2.7085,27.8748c-0.6779,29.0027-18.2246,50.3641-37.0579,70.7543
		c-12.3914,13.4156-25.6305,25.9678-38.7844,38.6202c-15.7522,15.1517-32.0066,29.783-47.9099,44.7759
		c-9.249,8.7196-19.9089,17.5635-27.9518,27.7617c-0.0186-0.1102-0.038-0.2203-0.0568-0.3304
		c4.7894-11.1626,9.5741-22.329,14.2882-33.5246c-4.8436,10.8055-9.5911,21.6604-14.1532,32.5675
		c0.306-1.4626,0.5383-2.6005,0.6597-3.1273c2.0725-8.9954,3.9945-18.0259,5.9031-27.0574
		c3.5468-16.7829,6.9773-33.5905,10.4016-50.3987c7.0061-34.3893,13.8503-68.8123,20.9529-103.1818
		c7.2668-35.1654,14.4907-70.4226,22.6101-105.4368c4.9545-21.3661,9.5425-43.3797,17.4038-63.9155
		c2.4119-6.3006,8.3074-19.7591,16.5872-12.3699c5.8571,5.2271,8.8401,13.9536,11.1575,21.2452
		c1.1267-2.3084-1.1155-6.6578-1.8726-8.9879c-2.0637-6.3513-4.1274-12.7026-6.1913-19.054
		c-4.0728-12.5344-8.1456-25.0687-12.2184-37.6031c-6.7281-20.7064-13.4563-41.4128-20.1843-62.1193
		c-14.7661-45.4443-29.5356-90.8875-44.2986-136.3328c-0.2158,6.1444,2.87,12.9569,4.2244,18.9753
		c2.7445,12.1947,4.6672,24.5737,6.0671,36.9908c3.561,31.5862,3.2437,63.3237,1.9474,95.0299
		c-3.3348,81.5632-10.3484,162.9971-16.8966,244.3564c-3.8232,47.5012-7.7192,94.9966-11.4502,142.5051
		c-1.738,22.1323-3.4983,44.2679-4.9275,66.4226c-0.0614,0.9521-0.1206,1.9048-0.1812,2.8571
		c0.0217-20.0702-0.0967-40.1454-0.1848-60.2147c0-15.2738,0-30.5477,0-45.8215c0-10.4271,0-20.8542,0-31.2813
		c0.2297-25.0087,0.5276-50.0123,0.8801-75.0006c0.3025-21.4415,0.2512-43.0779,2.3582-64.429
		c0.3655-3.7034,0.1392-12.355,3.353-15.1821c1.9402-1.7067,3.446,5.0496,3.5564,5.3893c0.0471-1.1093,0.0872-2.2639,0.1279-3.4294
		c-2.8472-8.3568-3.4004-17.7811-4.26-26.4808c-2.4347-24.638-3.2673-49.447-3.8293-74.1873
		c-1.1499-50.6294-1.4167-101.284-1.6965-151.9241c-0.1589-28.782-0.2668-57.5645-0.2949-86.347
		c-0.0024-7.2079,0.0045-14.4158,0.0067-21.6238c0.0021-6.473,1.4261-14.7838-0.1798-21.0885
		c0,50.4105-0.0034,100.821-0.0051,151.2315c-0.002,62.6868-0.0039,125.3737-0.006,188.0604
		c-0.0001,4.5005-0.0007,9.0131-0.0011,13.521c-0.0074-0.678-0.0085-1.3663-0.0198-2.0375
		c-0.0016-48.8255-0.0032-97.6509-0.0046-146.4764c-0.0017-53.6964-0.0034-107.3928-0.0051-161.0893
		c-0.0005-14.4031-0.0015-28.8063-0.0015-43.2094c-1.199,4.7064-0.1831,10.7922-0.1816,15.6196
		c0.0024,8.0909,0.005,16.1819,0.0076,24.2728c0.0063,20.5112-0.0728,41.0227-0.1594,61.5337
		c-0.2236,52.9338-0.5305,105.873-1.4264,158.8004c-0.5059,29.8845-1.1305,59.8253-3.7384,89.6128
		c-0.7051,8.0535-1.5183,16.1312-2.9426,24.0945c-0.6821,3.8148-1.8474,7.3369-1.6854,11.1471
		c0.1488-0.4581,1.3988-6.529,3.3065-5.5625c2.7139,1.3751,2.8458,8.8651,3.1436,11.2282
		c2.5193,19.9954,2.3679,40.4113,2.696,60.5443c0.5491,33.6841,0.7426,67.375,0.8419,101.0648
		c-0.278,36.4787-0.3601,72.9639-0.173,109.4308c-1.6729-32.6433-4.8914-65.3447-7.2717-97.8171
		c-5.5359-75.5182-11.3306-151.0198-16.3918-226.5721c-3.5571-53.0966-7.3162-106.3386-7.9038-159.5687
		c-0.3064-27.7415,1.0349-55.5608,5.3545-82.9907c1.3503-8.5748,2.9829-17.1152,5.0745-25.5417
		c1.1431-4.605,3.1655-9.2748,3.0579-14.0071c-13.8059,42.4766-27.6049,84.9554-41.4072,127.4332
		c-7.4758,23.0078-14.9518,46.0156-22.4277,69.0233c-3.4958,10.7588-6.9917,21.5175-10.4875,32.2763
		c-2.5664,7.8981-5.1327,15.7963-7.699,23.6945c-0.8685,2.6728-4.0828,8.9674-2.7654,11.7354
		c2.0493-6.4487,4.5825-13.1879,8.7764-18.5705c6.2607-8.035,12.4524-3.1547,16.0892,4.533
		c6.7196,14.2039,9.8722,30.503,13.4984,45.6871c8.6074,36.0411,15.76,72.428,22.8677,108.789
		c6.853,35.0584,13.5544,70.145,20.2671,105.2306c4.3584,22.7798,8.7175,45.56,13.2041,68.315
		c2.0371,10.3314,4.0951,20.6602,6.2729,30.9628c0.1992,0.9425,0.7532,4.0864,1.4829,7.8232
		c-4.4646-10.6552-9.1042-21.2604-13.8362-31.8187c4.645,11.032,9.3571,22.0364,14.076,33.0362
		c0.0468,0.2354,0.0946,0.4733,0.1427,0.7114c-0.1204-0.146-0.2451-0.2968-0.363-0.4405
		c-5.9678-7.2738-12.6083-14.0346-19.1594-20.782c-26.7465-27.5479-54.5731-54.0494-80.5962-82.2885
		c-17.4071-18.8892-38.6615-40.532-45.8149-65.9157c-3.8892-13.8007-3.5989-28.5779-1.401-42.6411
		c0.8182-5.2353,1.9188-10.4314,3.3187-15.5424c0.5004-1.8264,2.4314-5.1695,1.03-6.7664
		c-4.2227,12.9994-8.4475,25.9981-12.6714,38.9972c-7.7841,23.9561-15.5681,47.9124-23.3522,71.8685
		c-3.1182,9.5962-6.2362,19.1924-9.3542,28.7886c-2.6246,8.0775-5.2494,16.155-7.874,24.2325
		c-0.6868,2.1136-1.3735,4.2272-2.0603,6.3408c-0.0255,0.0785,0.0162,0.1794,0.0852,0.2891
		c-0.1851-0.1611-0.3737-0.2501-0.566-0.2501c-7.4746,0-14.9492,0-22.4238,0c-48.7261,0-97.4522,0-146.1782,0
		c1.26,2.3848,14.3793,1.6699,17.0775,2.0021c9.7767,1.2039,19.5,3.3739,28.6943,6.9474
		c25.6274,9.9606,39.8821,32.9926,52.7498,56.0171c8.9036,15.9316,16.7245,32.4009,24.6662,48.8207
		c9.5104,19.6634,18.3711,39.6422,27.6797,59.4017c5.4976,11.6695,10.6658,24.7761,18.0251,35.7026
		c-0.0332-0.0051-0.0662-0.0107-0.0991-0.0157c-0.0994-0.0569-0.2007-0.1151-0.2985-0.171
		c-9.095-7.994-18.1949-15.9846-27.3434-23.9187c8.6877,7.8792,17.4497,15.6829,26.3153,23.3336
		c-1.496-0.8488-2.6824-1.512-3.218-1.8341c-8.2159-4.9414-16.5153-9.7452-24.8195-14.5363
		c-15.9302-9.1907-31.9229-18.2733-47.9174-27.3513c-30.2901-17.1918-60.6835-34.2077-90.8824-51.5596
		c-32.7758-18.8325-65.7515-37.5099-98.0149-57.2834c-17.1753-10.5264-36.4886-20.8429-51.0206-35.0244
		c-6.087-5.9402-8.4775-13.3011,0.9284-16.8052c6.5244-2.4305,13.8834-2.7693,20.7838-2.7289
		c-1.8395-1.7844-6.665-0.9966-9.1088-0.9966c-6.6668,0-13.3336,0-20.0004,0c-13.157,0-26.314,0-39.4709,0
		c-21.735,0-43.4699,0-65.2048,0c-47.7016,0-95.4031,0-143.1047,0c5.8316,2.1307,13.3666,1.2856,19.5684,1.8702
		c12.1437,1.1448,24.2114,3.0888,36.1599,5.5237c30.7563,6.2679,60.4807,16.2058,89.8613,27.1027
		c76.4988,28.3724,151.7029,60.3009,226.9828,91.741c44.0565,18.3999,88.0838,36.8699,132.1744,55.188
		c20.5222,8.5263,41.0408,17.0748,61.6785,25.3182c1.2112,0.4838,2.4236,0.9653,3.6355,1.4476
		c-18.6855-6.1151-37.417-12.1049-56.1349-18.1189c9.2167,3.0045,18.4333,6.0091,27.65,9.0137
		c-9.2188-3.0052-18.4373-6.0104-27.6559-9.0156c0.002,0.0006,0.0039,0.0013,0.0059,0.0019
		c-15.4857-5.0481-30.9713-10.0964-46.4568-15.1445c-9.5667-3.1187-19.1332-6.2372-28.6999-9.3559
		c-23.9774-8.059-47.9275-16.1848-71.8439-24.3652c-20.0107-6.8445-40.3201-13.4127-59.6773-21.9595
		c-3.4155-1.5081-11.2382-3.8591-13.019-7.7048c-1.1202-2.4189,5.8489-1.767,6.2184-1.767
		c-1.037-0.3875-2.1191-0.7823-3.2115-1.1814c-8.815,0.1249-17.9354-2.2598-26.4619-4.1317
		c-24.1414-5.3003-47.9485-12.1823-71.6056-19.3014c-48.6817-14.6498-97.1109-30.1573-145.5301-45.6476
		c-27.0014-8.6384-54-17.29-80.9509-26.0849c-7.1699-2.3398-14.3398-4.6795-21.5098-7.0193
		c-5.8157-1.8978-12.8602-5.6057-18.9978-6.0031c47.9313,15.5992,95.8464,31.2484,143.7696,46.8726
		c59.4149,19.3708,118.8297,38.7416,178.2446,58.1124c4.1441,1.3511,8.2998,2.7064,12.4505,4.0599
		c-0.6504-0.2044-1.3087-0.4177-1.9532-0.6158c-46.456-15.1426-92.912-30.2852-139.368-45.4277
		c-50.7749-16.5504-101.5499-33.1008-152.3248-49.6511c-13.6105-4.4365-27.2241-8.8637-40.8316-13.3093
		c4.0858,2.5942,10.1769,3.5106,14.7509,5.0001c7.6707,2.498,15.3414,4.9959,23.012,7.4939
		c19.57,6.373,39.1136,12.8281,58.6542,19.2905c50.3423,16.649,100.6653,33.3763,150.7875,50.6788
		c27.8345,9.6086,55.6796,19.3609,82.7781,30.9146c7.4278,3.1669,14.8446,6.4451,21.9625,10.2692
		c3.4114,1.8328,6.395,4.0367,10.0648,5.0626c-0.3839-0.28-5.8428-3.4144-4.2524-4.9171c2.3224-2.1942,9.7064,0.1215,12.1934,0.6097
		c19.9109,3.9094,39.3993,10.4007,58.7742,16.3747c31.8768,9.8289,63.6538,19.9842,95.4008,30.2289
		c36.6736,12.2589,73.4205,24.3181,110.2419,36.0743c-8.5825-2.2257-17.1992-4.327-25.7617-6.4786
		c-25.0271-6.3498-50.0999-12.5208-75.1686-18.7041c-73.6357-18.1624-147.3358-36.0734-220.8554-54.7032
		c-51.4554-13.0388-103.1122-25.9307-153.7736-41.8364c-26.4077-8.291-52.378-18.1746-77.0532-30.7691
		c-7.7159-3.9383-15.3115-8.1343-22.6562-12.7314c-4.0132-2.5119-7.8166-5.8825-12.3395-7.2434
		c36.0239,26.2831,72.051,52.5617,108.0765,78.8425c19.513,14.2348,39.026,28.4697,58.539,42.7045
		c9.1246,6.6564,18.2491,13.3128,27.3736,19.9692c6.6984,4.8866,13.3969,9.7731,20.0953,14.6597
		c2.2658,1.6529,7.2441,6.659,10.2786,6.2646c-5.9329-4.2734-26.8621-20.6956-12.1738-26.4601
		c6.6782-2.6209,14.8143-2.196,21.8817-2.0618c8.9747,0.1704,17.9421,0.7495,26.8914,1.4215
		c38.6527,2.9025,77.1696,7.6369,115.6354,12.3529C507.8272,843.9254,543.1974,848.4172,578.5699,852.9z M889.0427,722.3654
		c-0.0627-0.0768-0.1251-0.1541-0.1875-0.2304c-0.0212-0.1302-0.041-0.2604-0.0625-0.3907
		c0.3025,0.1649,0.6055,0.3287,0.9081,0.4933C889.4734,722.2658,889.2548,722.3101,889.0427,722.3654z M1080.5953,645.0452
		c0.6515,4.0883,1.0719,8.22,1.1422,12.3609c0.0261,1.5371-0.3579,0.7557-1.4169,1.7067
		c-11.0204,4.8072-21.585,10.9151-32.1641,16.6133c-19.6439,10.5809-39.2351,21.2444-59.0746,31.4559
		c-6.8149-19.9915,11.707-34.9592,26.2454-44.7283c15.9376-10.7092,32.7656-20.2581,49.8398-29.0284
		c3.7549-1.8668,7.5098-3.7335,11.2646-5.6002C1078.303,633.4262,1079.6665,639.2162,1080.5953,645.0452z M968.8729,644.6641
		c5.6039-5.3318,11.1952-10.6733,16.8929-15.905c9.72-8.9249,19.6418-17.6998,30.2363-25.5823
		c7.7124-5.7383,17.3237-13.295,27.3224-14.0297c18.0341-1.325,28.4548,23.976,32.8573,37.9088
		c-7.5089,3.7686-15.0085,7.5165-22.6577,10.9968c-12.2946,5.5939-24.7628,10.8851-37.4873,15.4282
		c-10.1885,3.6376-22.2489,8.4433-33.1423,5.2687c-4.4556-1.2983-8.3347-4.0338-11.0222-7.8173
		C971.4321,650.3124,968.1339,645.3672,968.8729,644.6641z M898.6372,712.4427c8.2205-7.4289,16.1489-15.1873,24.0898-22.9119
		c15.0436-14.6339,29.9033-29.4575,45.1033-43.9297c2.7957,8.6035,2.5864,17.4579-1.8977,25.5577
		c-5.537,10.0015-16.2201,16.5076-25.6985,22.3265c-16.0806,9.8719-33,18.1766-49.7964,26.7206
		C894.126,717.0187,897.5874,713.3915,898.6372,712.4427z M890.2299,720.3862c14.683-7.311,29.4095-14.5688,44.5298-20.9211
		c9.0011-3.7816,18.5806-7.9721,28.3688-9.1232c12.4453-1.4636,21.2214,6.0997,24.9067,17.4409
		c-18.1021,9.3289-36.5498,18.5335-55.9165,24.9459c-9.4644,3.1338-20.9585,6.8329-30.9286,3.931
		c-2.5139-0.7317-4.8466-1.8682-7.0023-3.2878c0.1602-0.493,0.3203-0.986,0.4805-1.479c-0.1371-0.1171-0.3239-0.5082-0.3357-0.5202
		c-0.6858-2.8538-2.5652-5.5777-4.5327-8.0634c2.4554,1.8754,4.6674,2.9971,5.9131,2.262
		c-1.4802-0.8286-2.9629-1.6552-4.4447-2.4824c0.6852,0.3713,1.3683,0.7462,2.0544,1.116c0.8007,0.4435,1.6012,0.8871,2.4017,1.3307
		c-0.3671-2.335-3.5339-3.5934-5.9907-3.3038c-0.3162-0.1765-0.6318-0.3531-0.948-0.5295
		c-0.0055-0.0333-0.0117-0.0666-0.0172-0.0999C889.2555,721.2104,889.7443,720.8027,890.2299,720.3862z M904.9811,638.1938
		c-4.0533,19.3507-8.12,38.701-11.9559,58.0963c-1.559,7.8828-3.1284,15.7682-4.5369,23.6812
		c-0.0096-0.0558-0.019-0.1118-0.0287-0.1677c5.4406-40.4489,10.8207-80.9077,16.8251-121.2776
		c2.8367-19.072,5.5532-38.2405,9.5387-57.1152c1.2507-5.9232,2.5814-11.992,4.9418-17.592
		c0.7581-1.798,1.8152-4.4913,3.7528-5.3645c3.1931-1.4389,4.631,5.0234,5.1761,6.7017
		C920.9187,562.8621,912.874,600.5121,904.9811,638.1938z M953.3586,249.2552c13.7024,47.7368,8.3259,97.4915,0.3718,145.6773
		c-7.0676,42.8162-15.8157,85.3352-24.5714,127.8314c-3.5562-10.5853-3.1672-23.0232-3.1444-33.9922
		c0.0488-23.2724,2.3359-46.4712,4.7671-69.5938c5.1077-48.5772,11.1223-97.0728,17.4927-145.4994
		c1.2742-9.5014,2.5483-19.0027,3.8225-28.5041C952.5481,246.5253,952.9658,247.8864,953.3586,249.2552z M908.9373,458.4871
		c0.6287-7.9843,1.2573-15.9686,1.886-23.9529c3.6656-46.5536,7.4236-93.1287,12.467-139.5564
		c2.1184-19.5002,3.2192-40.463,9.1664-59.2828c1.7467-5.5276,6.0179-14.3733,11.8486-7.2453
		c3.6849,4.5048,5.8088,10.4639,7.5416,15.955c-1.2667,9.4983-2.5334,18.9965-3.8,28.4948
		c-6.5884,49.4026-13.578,98.8528-22.1512,147.9539c-0.9982,5.7166-7.2592,46.7065-14.2623,43.7908
		C909.4612,463.7399,908.7781,460.5065,908.9373,458.4871z M888.42,719.4496c0.2013-2.11,0.3994-4.2203,0.5912-6.3312
		c7.5615-83.2224,12.9868-166.6465,19.5405-249.9524c1.0051,3.0939,1.7776,6.091,2.2773,9.309
		c3.4353,22.1211,1.6125,45.2009-0.3555,67.3516c-1.9689,22.1575-4.6201,44.2576-7.3151,66.3363
		c-4.623,37.8761-9.7255,75.6885-14.7203,113.5161c-0.0061-0.0353-0.012-0.0706-0.0182-0.1058
		C888.4202,719.532,888.4199,719.4908,888.42,719.4496z M888.2356,418.4094c0-0.927,0.0048-1.8671,0.0078-2.802
		c-0.0032,22.8704-0.0078,45.7942-0.0078,68.666C888.2356,462.3188,888.2356,440.3641,888.2356,418.4094z M828.688,232.0251
		c1.7441-4.8166,4.1084-12.1,8.8594-14.8032c7.5665-4.3051,10.7412,15.8285,11.4001,19.2393
		c3.7468,18.943,5.3444,38.4066,7.2213,57.5996c4.4996,46.0122,7.9159,92.1337,11.2382,138.2436
		c0.5449,7.5625,1.0898,15.1249,1.6346,22.6874c0.1171,1.6259-1.2023,5.0117-3.1066,5.2763
		c-4.3726,0.6078-6.8574-12.2471-7.4873-14.6254c-2.7222-10.279-4.4536-20.8076-6.1693-31.2925
		c-8.1512-49.8142-14.682-99.9296-21.0511-149.998c-0.74-5.9326-1.4801-11.8652-2.2202-17.7979
		C828.3835,241.5551,826.9568,236.8054,828.688,232.0251z M847.4102,511.5074c-9.0129-46.334-18.0222-92.7274-24.689-139.4679
		c-6.363-44.6102-9.8973-92.5003,4.6263-136.0156c1.0548,8.4088,2.1097,16.8174,3.1647,25.2262
		c6.0701,48.3855,11.5906,96.8641,16.4352,145.3876c2.4581,24.6216,4.871,49.3137,5.0424,74.0778
		c0.0837,12.093,0.6799,25.9584-3.2467,37.6445C848.2987,516.0757,847.8544,513.7916,847.4102,511.5074z M882.7346,691.0303
		c-4.0891-21.6304-8.3779-43.2235-12.6594-64.8165c-4.6387-23.3954-9.3145-46.7834-13.9595-70.1776
		c-1.6772-8.448-3.3538-16.8964-5-25.3505c-1.0002-5.137-3.0352-10.1909,0.0349-14.9599c2.6157-4.0632,5.3665,0.5892,6.5203,3.2754
		c4.1127,9.5755,5.5413,20.3843,7.281,30.5958c3.4578,20.2947,6.2416,40.7089,9.0134,61.1061
		c4.603,33.8708,8.8328,67.7887,13.116,101.7003C885.6572,705.2017,884.0613,698.0479,882.7346,691.0303z M887.2046,713.0372
		c-5.6904-45.6026-11.3855-91.2114-16.2578-136.9099c-2.509-23.5332-5.0493-47.1603-5.6013-70.8351
		c-0.3557-15.261-0.7886-31.7799,3.9917-46.4888c0.543,7.5463,1.0916,15.0923,1.6257,22.6392
		c3.1957,45.156,6.2671,90.3207,9.4412,135.4783c1.4868,21.1526,2.9788,42.3051,4.5586,63.451
		c0.8845,11.843,1.7782,23.686,2.7913,35.5187C887.5747,714.9387,887.391,713.9877,887.2046,713.0372z M887.9751,722.2267
		c0.0015,0.1968,0.0042,0.3934,0.0055,0.5902c-0.1066,0.0677-0.2146,0.134-0.3091,0.2133
		c-0.0658,0.0551-0.1359,0.1022-0.2019,0.1567c0.1222-0.2849,0.2443-0.5698,0.3665-0.8546
		C887.8826,722.2968,887.9287,722.2626,887.9751,722.2267z M854.7263,688.045c7.6763,8.0316,15.3401,16.0938,23.2964,23.8502
		c1.0188,0.9931,4.5315,4.9578,8.2454,8.4008c-15.963-8.9111-31.9154-17.8952-47.1509-27.9957
		c-17.8315-11.8216-36.7687-27.335-29.0591-51.0616C825.1179,656.677,839.8252,672.454,854.7263,688.045z M705.9901,610.4017
		c3.6122-8.8544,8.3376-18.1623,15.7035-24.4912c7.7211-6.6342,16.1703-5.8521,24.6279-1.1714
		c20.3416,11.2574,37.5317,29.7274,53.6277,46.2144c2.8344,2.9033,5.6687,5.8065,8.5032,8.7097
		c1.3235,1.3558-0.6555,4.0514-1.5122,5.4623c-5.5,9.0565-16.2013,10.9066-25.9274,8.5305
		c-23.2067-5.6693-45.8162-18.2389-66.6785-29.5571c-3.3864-1.8945-6.7727-3.7889-10.1591-5.6833
		C702.3081,617.3711,705.2837,612.1331,705.9901,610.4017z M703.0125,618.6749c17.6504,9.7877,34.9539,20.1221,51.5789,31.5878
		c16.4553,11.3485,42.3079,28.8103,34.2126,52.5649c-21.0153-9.7401-41.774-19.9982-62.6089-30.116
		c-5.1865-2.5188-10.3748-5.0371-15.6038-7.4671c-2.3257-1.0807-11.9202-3.7906-12.332-6.4668
		C696.223,645.5468,698.8031,631.2766,703.0125,618.6749z M647.6205,888.0513c10.0331-4.7919,20.0903-9.5627,29.9547-14.6962
		c1.37-0.713,6.4094-2.8527,10.908-5.3408c-13.1941,12.1202-26.45,24.2057-40.4773,35.3484
		c-17.0368,13.5333-38.1584,27.6218-58.8123,12.5545C608.566,906.414,628.15,897.3507,647.6205,888.0513z M532.2596,1009.0315
		c-13.1993-9.8757-34.7422-30.1754-19.7928-46.9692c7.6678-8.6139,18.2524-14.8526,28.0792-20.6561
		c10.9926-6.492,22.3371-12.3697,33.7402-18.1014c3.2788-1.6481,6.5835-3.2455,9.8774-4.8631
		c2.9637-1.4554,3.5281-2.4729,6.0097-0.1681c8.5693,7.9587,7.6329,19.7245,1.7828,29.1018
		c-12.6472,20.2722-31.678,37.8113-48.9624,54.0834c-1.9673,1.8046-3.9346,3.6091-5.9019,5.4136
		C534.8126,1008.9631,534.723,1010.1057,532.2596,1009.0315z M594.296,1004.5163c-4.1107,4.2747-8.2205,8.5515-12.2658,12.8882
		c-1.0611,1.1375-8.3646,10.6389-9.6123,10.2997c-13.7366-1.7976-27.1099-9.0127-38.1249-17.1894
		c14.8303-13.7057,30.0704-26.9121,46.1729-39.1193c15.9473-12.0895,40.6849-31.1845,60.7343-16.0768
		C625.7985,971.9426,610.0032,988.1821,594.296,1004.5163z M692.4429,884.3317c-2.1663,9.2731-7.7986,17.7961-13.1532,25.5121
		c-10.9625,15.7968-23.8969,30.2315-36.9525,44.3134c-1.4976,1.6153-8.5388-8.058-9.0308-8.9734
		c-3.2899-6.1211-2.5443-13.0789,0.561-19.1119c4.2549-8.2662,11.1079-15.3439,17.427-22.0439
		c11.9163-12.6341,24.7546-24.2964,37.4266-36.1456c0.3361-0.1876,0.6693-0.3765,0.9967-0.5673
		c0.1184,0.7411,0.2395,1.4816,0.3594,2.2225c-0.1108-0.746-0.2212-1.4919-0.332-2.2381c0.1746-0.1019,0.3452-0.2048,0.5165-0.3075
		c0.1049,0.1496,0.2056,0.3034,0.3114,0.4521c0.0872,0.6616,0.3467,1.4564,0.6544,2.2794c0.017,0.0784,0.0367,0.1592,0.0521,0.2363
		c0.0098-0.0062,0.02-0.0127,0.0298-0.0188c0.5789,1.5154,1.2981,3.1035,1.4734,4.1644c0.0543,0.3281,0.0966,0.657,0.1382,0.986
		c-0.4426,0-0.8851,0-1.3276,0c0.3761,0.081,0.8423,0.1202,1.3464,0.1339C693.3083,878.2665,693.1418,881.3402,692.4429,884.3317z
		 M690.4908,866.8551c0.0233-0.0142,0.0474-0.0282,0.0707-0.0424c-0.0026,0.0328,0.0028,0.0718,0.0017,0.1058
		C690.5391,866.8974,690.5149,866.8763,690.4908,866.8551z M690.5674,867.2011c0.0031,0.0461-0.0028,0.0852,0.0021,0.1329
		c-0.0197-0.0607-0.0391-0.1213-0.0592-0.1824C690.5293,867.168,690.5483,867.1847,690.5674,867.2011z M675.8159,659.0954
		c4.2913,0.651,8.552,1.5556,12.7036,2.8286c1.4675,0.4501,0.6047,0.5752,1.1809,1.8751
		c1.1653,11.9665,3.7107,23.9017,5.8608,35.7238c3.9927,21.9522,8.0803,43.8798,11.6614,65.9037
		c-20.5339,0.2926-29.2136-20.8733-33.999-37.3453c-5.4935-18.91-9.4545-38.376-12.5873-57.8084
		c-0.6129-4.1479-1.2258-8.2959-1.8387-12.4438C664.4872,657.788,670.1924,658.2424,675.8159,659.0954z M641.1722,764.5939
		c-3.6357-7.622-7.2726-15.2388-10.7427-22.9384c-5.4333-12.056-10.6545-24.2789-14.6691-36.891
		c-2.78-8.7338-6.8165-20.3576-3.2675-29.4366c6.1609-15.7602,31.1342-17.6159,45.4969-17.4989
		c1.4934,9.8499,2.9094,19.6837,3.9509,29.5953c1.4044,13.3679,2.51,26.817,2.6536,40.2641
		c0.1125,10.5372,0.3014,22.9919-7.3845,31.2231C655.4014,760.8485,643.238,768.9248,641.1722,764.5939z M684.1575,853.0702
		c-4.5181-10.1118-9.4331-20.0507-14.3125-29.9911c-9.2426-18.8285-18.719-37.5428-27.7563-56.4711
		c8.4634,0,16.3096,2.5017,22.5381,8.5092c8.2852,7.9908,11.3555,20.0151,14.0354,30.835
		c4.6914,18.9417,7.4198,38.2492,10.4443,57.5011C687.2008,858.9172,684.7611,854.4214,684.1575,853.0702z M689.2131,863.7098
		c-2.4171-16.2866-4.7721-32.5981-6.1371-49.0045c-0.8094-9.7297-1.8289-20.1356,0.1056-29.7996
		c2.4595-12.2866,12.363-18.2978,24.2888-18.2978c3.2778,20.099,6.3319,40.4879,6.4458,60.8884
		c0.0558,9.9696,0.022,22.0443-5.8186,30.6296c-1.593,2.3416-3.5818,4.3211-5.8,6.0194c-0.2378-0.1735-0.4756-0.3469-0.7134-0.5204
		c-0.1584,0.0918-0.5854,0.153-0.5974,0.1581c-2.6619-0.1683-5.5144,0.6155-8.2363,1.5927
		c2.2028-1.5779,3.6753-3.1484,3.4755-4.4714c-1.1898,1.0909-2.3787,2.184-3.5677,3.2765c0.5071-0.4779,1.0168-0.9528,1.5229-1.4318
		c0.6722-0.6217,1.3445-1.2433,2.0167-1.8651c-1.7968-0.2097-4.5748,2.9717-5.4088,5.0135
		c-0.0149,0.0137-0.0298,0.0273-0.0447,0.041c-0.2327-0.0369-0.4653-0.0743-0.6982-0.1105
		C689.7883,865.13,689.5084,864.4207,689.2131,863.7098z M515.4444,766.608c33.3486,19.0447,66.5582,38.3314,99.845,57.4839
		c17.091,9.8338,34.1773,19.6802,51.3766,29.3239c7.3135,4.1008,14.623,8.2192,22.0221,12.1676
		c-0.0638-0.0209-0.1278-0.0416-0.1915-0.0626c-36.4641-17.5834-72.962-35.0994-109.1893-53.1678
		c-17.1608-8.559-34.3995-17.0768-51.0847-26.5427c-5.6436-3.2017-11.3965-6.5256-16.3817-10.7145
		c-1.6083-1.3514-4.0194-3.2603-4.3704-5.507C506.9085,765.9916,513.6552,766.608,515.4444,766.608z M260.3217,657.8574
		c49.8613,1.299,95.9004,22.1141,139.3812,44.6971c38.4169,19.953,76.0293,41.4122,113.6172,62.8721
		c-11.1512,0.1104-22.843-4.1005-33.2517-7.5141c-22.0619-7.2353-43.3588-16.5806-64.5377-26.04
		c-44.4822-19.8678-88.6046-40.575-132.5505-61.5996c-8.6144-4.1479-17.2288-8.2959-25.8432-12.4438
		C258.1987,657.8204,259.2604,657.8297,260.3217,657.8574z M446.7688,765.1368c-7.0588-2.9338-14.1176-5.8677-21.1764-8.8015
		c-42.9867-17.8665-85.9649-35.819-128.4243-54.9122c-18.0761-8.1285-37.4896-15.7783-53.9429-27.0022
		c-4.5501-3.1039-13.6381-10.5459-4.6512-14.241c5.4528-2.242,11.931-2.4005,17.7548-2.351
		c8.4852,4.0781,16.9704,8.1562,25.4556,12.2343c44.2213,21.2533,88.3353,42.9263,131.7101,65.8644
		c9.2592,4.8967,18.5563,9.8148,27.3272,15.5555c2.1935,1.4357,14.0609,8.0825,12.072,12.267
		C452.0429,765.5403,448.3256,765.7838,446.7688,765.1368z M682.573,863.0146c-76.9985-33.1519-154.8963-64.2388-232.3087-96.4066
		c3.2515,0,6.3387,0.1912,9.5519,0.7108c22.0535,3.5658,43.3916,12.4315,63.7976,21.1516
		c20.4035,8.719,40.5403,18.0703,60.6432,27.4565c34.7965,16.2468,69.3821,32.933,104.0159,49.521
		c-0.1187-0.0389-0.2374-0.0773-0.3561-0.1162C686.137,864.5562,684.3562,863.7823,682.573,863.0146z M400.4502,771.8004
		c-0.9194-0.2997-1.8503-0.6082-2.7775-0.9139c22.2747,7.2646,44.6068,14.5498,66.8859,21.8127
		C443.1891,785.7329,421.8197,778.7667,400.4502,771.8004z M657.6254,861.8415c-21.9476-2.813-43.9198-5.437-65.89-8.0671
		c-23.5419-2.8182-47.0881-5.6009-70.6302-8.4174c-8.3939-1.0042-16.7878-2.0093-25.1776-3.0466
		c-5.066-0.6264-10.2293-0.348-13.5876-4.8042c-2.8535-3.7864,2.8703-4.7889,5.5593-5.0137
		c10.2679-0.8585,20.8304,1.0625,30.9676,2.553c20.3184,2.9875,40.5414,6.655,60.7446,10.3285
		c34.0599,6.1932,68.0468,12.7675,102.0458,19.2817C673.6006,863.6363,665.512,862.8523,657.6254,861.8415z M455.9718,808.1572
		c43.8143,10.9266,87.5983,21.9745,131.4066,32.9248c20.5248,5.1303,41.051,10.2558,61.5976,15.2982
		c11.519,2.8268,23.0406,5.646,34.5886,8.3527c0.4995,0.1171,1.0073,0.2424,1.5209,0.3732
		c-0.9298-0.1268-1.8602-0.2509-2.7914-0.3702c-45.5297-8.7985-91.0687-17.5859-136.4337-27.2039
		c-23.1065-4.8989-46.3125-9.7977-68.9454-16.6064c-14.6094-4.3949-30.429-9.114-42.9159-18.2236
		C441.3237,804.5192,448.6495,806.3312,455.9718,808.1572z M195.011,757.8251c-0.9164-7.6613,16.3969-5.0962,19.8807-4.715
		c19.4771,2.131,38.786,6.7555,57.8887,10.9677c45.3362,9.9967,90.4344,21.0897,135.4921,32.265
		c7.3403,1.8206,14.6805,3.6411,22.0208,5.4616c1.5913,0.3947,4.3912,2.709,4.0668,4.6055
		c-0.7451,4.3561-13.7059,2.7596-16.1539,2.6245c-10.5883-0.5848-21.1076-2.1945-31.58-3.8051
		c-49.7734-7.655-99.3307-16.9521-148.7929-26.3865c-6.5455-1.2651-13.0909-2.5302-19.6363-3.7953
		c-5.4168-1.047-8.8878-1.3834-13.1352-4.8479C201.4555,767.2578,195.6106,762.8381,195.011,757.8251z M334.2658,819.7339
		c-43.2361-7.7098-88.6224-19.3418-124.5048-45.9672c8.3029,1.5987,16.6058,3.1974,24.9086,4.7961
		c47.7785,9.1996,95.4754,18.9507,143.0046,29.3616c24.1258,5.2846,48.3044,10.6357,71.8544,18.1462
		c11.5184,3.6735,24.8706,7.416,34.7554,14.7766c-2.9825-0.3684-5.965-0.7369-8.9474-1.1053
		C428.2135,833.9208,381.0219,828.0714,334.2658,819.7339z"/>
	<path d="M544.1826,872.1887c-7.8326-1.3172-15.6603-3.3486-22.8745-6.7277c-2.8553-1.3375-6.8624-5.5419-10.0694-4.9501
		c2.3255,1.6024,4.9833,4.0665,5.1233,7.0854c0.2853,6.1485-9.4381,8.9052-13.7891,10.1923
		c-14.0168,4.1462-29.0739,5.6392-43.5095,7.5851c-28.1568,3.7956-56.4076,6.67-84.7012,9.2017
		c2.5621,1.6652,9.1747-0.2993,12.1158-0.5674c6.2335-0.5684,12.4667-1.1163,18.7068-1.6078
		c22.0273-1.7351,44.0851-3.1716,66.1588-4.1628c20.6516-0.9274,41.6953-2.0886,62.2259,0.9457
		c7.839,1.1585,15.7108,2.8953,23.0475,5.9525c2.0523,0.8552,7.7183,5.1409,9.6667,4.069c-2.8922-2.11-6.6252-4.5373-7.0662-8.4655
		c-0.8034-7.1563,11.3275-9.656,16.0665-10.7798c14.379-3.4098,29.2935-4.9252,43.948-6.6155
		c11.1156-1.2822,22.2671-2.5471,33.4329-3.7267c-16.7896,1.4001-33.5903,2.6535-50.4118,3.5684
		C583.009,874.2319,563.2789,875.4002,544.1826,872.1887z"/>
	<path d="M696.7072,860.4331c0.202-0.016,0.4733,0.0645,0.7848,0.2065c-0.6218-0.4536-1.2435-0.9071-1.8652-1.3607
		C696.4718,859.8953,696.5227,860.1668,696.7072,860.4331z"/>
	<path d="M701.6107,863.507c-0.8782-0.6412-2.8456-2.2868-4.1188-2.8674c1.364,0.9951,2.7283,1.9903,4.0923,2.9854
		C701.6453,863.5897,701.6699,863.5502,701.6107,863.507z"/>
	<path d="M690.7146,875.0912c-0.2742,0-0.5483,0-0.8225,0C690.2682,875.1185,690.5439,875.222,690.7146,875.0912z"/>
	<path d="M690.7146,875.0912c0.2928,0,0.5857,0,0.8787,0c-0.3123-0.0672-0.5647-0.1619-0.7212-0.2957
		C690.8369,874.9482,690.7837,875.0383,690.7146,875.0912z"/>
	<path d="M690.7585,874.1312c-0.1704-1.1544-0.3425-2.3091-0.5138-3.4636C689.1689,871.5175,688.4725,872.6624,690.7585,874.1312z"
		/>
	<path d="M690.384,871.4358c0.1365,0.8984,0.2728,1.7969,0.4093,2.6954c0.8126-0.7289,0.8712-2.2546,0.4862-4.1715
		c-0.3254,0.2055-0.6899,0.4375-1.0214,0.6979C690.3004,870.9169,690.3416,871.1765,690.384,871.4358z"/>
	<path d="M690.2582,870.6575c-0.0609-0.3732-0.1207-0.7468-0.181-1.1201c0.0559,0.3768,0.1117,0.7535,0.1676,1.1302
		C690.2491,870.6641,690.2538,870.661,690.2582,870.6575z"/>
	<path d="M768.5911,765.6479c-21.3981-29.4646-43.0497-59.1923-64.4009-88.6312c9.7859,13.5444,19.4724,27.1633,28.6565,41.1179
		c6.4469,9.7954,16.0522,21.8997,17.4524,33.9531c1.0465,9.0099-6.6394,13.5173-14.7122,13.339
		c0.4874,2.0994,6.8009,1.3967,8.8933,1.8593c6.7495,1.4922,13.0273,4.7695,18.686,8.6655
		c13.3101,9.1639,23.8047,22.1776,34.0883,34.4793c10.7648,12.8772,21.1771,26.0518,31.4042,39.3589
		c4.0282,5.2413,8.0266,10.5061,11.9656,15.815c1.6965,2.2864,4.7533,8.3397,7.2998,9.191
		c-13.1919-18.1564-26.3831-36.3133-39.5745-54.47c-0.0005-0.0006-0.0009-0.0012-0.0012-0.0018
		c13.1917,18.1573,26.3833,36.3148,39.5757,54.4717c-0.0215-2.5154-4.3843-6.8354-5.944-9.022
		c-3.7604-5.272-7.4587-10.5884-11.1273-15.9246c-9.4829-13.7941-18.78-27.7248-27.7029-41.8887
		c-8.5122-13.5123-17.655-27.4216-22.5515-42.7372c-2.1709-6.7899-3.5547-14.0052-3.0293-21.1582
		c0.1602-2.1814,2.8322-8.8347,1.0544-9.9062c-2.9336,9.7711-11.5109,14.0745-20.4542,8.0358
		c-10.2096-6.8937-18.0819-18.1694-25.615-27.6936c-10.4049-13.155-20.3727-26.6508-30.2614-40.2013
		c22.2136,30.5171,44.6067,61.433,66.8512,92.0614C768.9583,766.1249,768.7775,765.8835,768.5911,765.6479z"/>
	<path d="M606.1576,788.6714c-3.4364-3.9006-12.0202-12.7529-8.1935-18.6966c2.3315-3.6213,7.4949-3.3669,11.2202-3.3669
		c-0.2787-0.3702-0.5641-0.8401-0.9326-1.1814c-12.3436,0.2122-25.1224-6.397-35.5018-12.2718
		c-17.6014-9.9625-33.4363-23.0388-49.1386-35.6929c-16.3468-13.1736-32.4565-26.6465-48.3806-40.3275
		c-4.741-4.0731-9.4432-8.1874-14.1334-12.3185c-2.2059-1.943-6.3748-7.4167-9.4132-7.5773
		c20.9279,18.3704,41.6248,36.9834,61.7368,56.2499c10.4526,10.013,21.2518,20.0323,30.4738,31.2233
		c3.0558,3.7881,10.1454,12.0994,6.7437,17.5455c-1.7224,2.7574-5.6663,3.2487-8.6312,3.1694
		c2.2055,2.333,7.5205,1.2803,10.5344,1.8399c8.2079,1.524,16.0955,4.6785,23.5132,8.444
		c17.4761,8.8714,32.8787,21.683,47.9629,34.0541c12.7073,10.4217,25.2132,21.0857,37.6297,31.8541
		c-8.0298-7.2825-16.0024-14.6201-23.9436-21.943C626.8959,809.709,615.8886,799.7171,606.1576,788.6714z"/>
	<path d="M837.7668,586.1212c-1.3054-8.1627-1.8975-16.5675-0.9132-24.8018c0.3771-3.1548,3.1592-8.3865,1.5931-11.2715
		c-0.7974,2.7012-2.3113,5.9894-5.1345,7.0499c-5.7563,2.1621-11.3909-6.2506-13.9585-9.9847
		c-8.2896-12.0558-14.384-25.9171-20.7166-39.0502c-12.3499-25.6122-23.8547-51.5986-35.0468-77.7323
		c-0.788,2.9565,3.1327,8.6357,4.3014,11.3521c2.4758,5.7543,4.9321,11.5148,7.3369,17.2993
		c8.4888,20.419,16.7034,40.9597,24.5005,61.6531c7.147,18.9675,14.6119,38.2102,18.2107,58.2304
		c1.46,8.121,2.3612,16.4734,1.749,24.7283c-0.1663,2.2432-2.5176,9.1797-0.8801,10.7135c1.118-3.4401,2.3156-7.9296,6.0721-9.425
		c6.7279-2.6783,12.8475,8.4662,15.4056,12.7362c7.7153,12.8786,13.8838,26.7648,20.1193,40.3965
		c4.4336,9.6923,8.8768,19.4175,13.2521,29.1798c-6.3257-15.0233-12.5264-30.098-18.4396-45.2871
		C848.1848,623.8409,840.8424,605.3509,837.7668,586.1212z"/>
	<path d="M896.3115,725.8792c0.0724,0.1984,0.0804,0.4834,0.043,0.8245c0.251-0.7728,0.5022-1.5455,0.7532-2.3183
		C896.791,725.3595,896.4928,725.6288,896.3115,725.8792z"/>
	<path d="M894.7925,731.8695c0.3689-1.1306,1.3987-3.6812,1.562-5.1658c-0.5621,1.7297-1.1241,3.4595-1.6863,5.1893
		C894.7214,731.9383,894.7676,731.9461,894.7925,731.8695z"/>
	<path d="M799.4559,708.353c-2.4321-1.1648-4.8712-2.3153-7.3171-3.4525C793.8223,705.8345,796.377,707.0238,799.4559,708.353z"/>
	<path d="M883.8026,723.6047c-0.2423,0.125-0.486,0.2479-0.7281,0.3731c-0.8123,0.4078-1.6244,0.8157-2.4365,1.2236
		c0.9338,0.5858,2.4271,0.1623,4.1664-0.82c-0.0038-0.005-0.0079-0.0098-0.0117-0.0148
		C884.5005,724.1242,884.1609,723.8456,883.8026,723.6047z"/>
	<path d="M880.0303,725.4808c-0.0325-0.0551-0.4619-0.6389-0.701-1.2004c0.2164,0.666,0.4327,1.3318,0.649,1.9977
		C879.9448,725.9547,879.9546,725.6784,880.0303,725.4808z"/>
	<path d="M883.8026,723.6047c0.438-0.226,0.8774-0.4489,1.3158-0.6741c-0.444,0.2211-0.8879,0.442-1.3318,0.663
		C883.792,723.5972,883.7972,723.6011,883.8026,723.6047z"/>
	<path d="M880.6267,725.1667c1.0535-0.5234,2.1067-1.0487,3.1599-1.5732C882.6216,722.8152,881.2573,722.4613,880.6267,725.1667z"/>
	<path d="M935.7672,618.3209c2.6364-4.4755,8.3895-15.4206,15.2288-13.634c4.1639,1.0877,5.5167,6.0836,6.6661,9.6205
		c0.2656-0.3804,0.624-0.7982,0.8345-1.2549c-4.0199-11.6853-1.6848-25.8962,0.687-37.5968
		c4.0253-19.8575,11.5521-39.0019,18.7194-57.8909c7.4618-19.6653,15.2811-39.1985,23.3556-58.6199
		c2.4041-5.782,4.8591-11.5401,7.3337-17.2919c1.1653-2.7082,5.0774-8.3747,4.2883-11.3222
		c-10.9824,25.6451-22.2676,51.1461-34.3542,76.2947c-6.282,13.0706-12.4619,26.471-20.2426,38.7399
		c-2.6469,4.0792-8.348,13.4328-14.582,11.8992c-3.1543-0.7759-4.838-4.3774-5.6774-7.2165
		c-1.5251,2.8095,1.0829,7.4243,1.4885,10.4467c1.0669,7.9517,0.5975,16.0942-0.5607,24.0065
		c-2.8298,19.3319-10.1346,37.8969-17.1627,56.0243c-6.051,15.6075-12.4135,31.0919-18.91,46.5208
		c4.3536-9.7124,8.7745-19.388,13.1857-29.0313C922.1924,644.62,928.2815,631.0285,935.7672,618.3209z"/>
	<path d="M1198.9019,776.4958c7.6172-3.998,15.7249-7.3645,24.1877-9.066c3.1331-0.6299,9.1133,0.3937,11.3789-2.0033
		c-2.8206,0.0764-6.4146-0.3497-8.3041-2.7046c-3.8497-4.7979,2.3617-12.752,5.1154-16.3608
		c8.8572-11.6083,20.1189-21.6899,30.6121-31.7702c20.4655-19.66,41.5503-38.6321,62.8722-57.3525
		c-3.0458,0.1635-7.224,5.6504-9.4357,7.5989c-4.6912,4.1328-9.3943,8.249-14.1362,12.3237
		c-16.7385,14.3834-33.6782,28.5436-50.8933,42.3539c-15.7804,12.6593-31.7253,25.7072-49.6116,35.314
		c-7.26,3.8993-14.9138,7.3372-22.9435,9.3051c-2.1815,0.5346-9.5062,0.444-10.4535,2.4739c3.6229,0,8.2579-0.2457,10.8499,2.8622
		c4.6389,5.5624-4.0133,14.8213-7.2808,18.5873c-9.8188,11.3168-21.0789,21.4755-32.0752,31.6181
		c-7.9369,7.3207-15.905,14.6563-23.9307,21.9368c12.4116-10.7662,24.9126-21.4281,37.615-31.8478
		C1167.1185,797.7472,1182.0559,785.3378,1198.9019,776.4958z"/>
	<path d="M1079.2798,875.2021c1.1257,0,3.7561,0.1788,5.1611-0.1108c-1.7382,0-3.4763,0-5.2144,0
		C1079.1989,875.1557,1079.2037,875.2021,1079.2798,875.2021z"/>
	<path d="M1086.7988,875.0912c-0.4681,0-0.9363,0-1.4044,0C1085.6626,875.2664,1086.1429,875.0912,1086.7988,875.0912z"/>
	<path d="M1085.2017,874.7956c-0.1583,0.1313-0.4254,0.2266-0.7607,0.2957c0.3179,0,0.6357,0,0.9535,0
		C1085.3079,875.0347,1085.2427,874.9431,1085.2017,874.7956z"/>
	<path d="M1072.7864,770.8032c0.1421-1.0878,0.2761-2.1766,0.4143-3.2648C1072.9805,768.3547,1072.8584,769.5516,1072.7864,770.8032
		z"/>
	<path d="M1073.9937,674.5521c-9.8284,13.4656-19.7368,26.8755-30.0769,39.9489c-7.2722,9.1943-14.6992,19.3738-24.0732,26.5795
		c-9.1304,7.0185-18.7273,3.9758-21.9958-6.9219c-1.8462,1.1124,0.7732,6.8997,0.98,9.0328
		c0.6667,6.8803-0.5103,13.8636-2.4668,20.4494c-4.6023,15.4904-13.7358,29.493-22.2574,43.0749
		c-8.9203,14.2173-18.2324,28.1913-27.7277,42.0301c-3.74,5.4507-7.5115,10.8805-11.3433,16.2672
		c-1.6503,2.3199-6.4626,7.0978-6.4854,9.7826c13.1902-18.1575,26.3828-36.3134,39.5742-54.47
		c0.0037-0.0052,0.0076-0.0104,0.0114-0.0156c-13.1954,18.1616-26.3915,36.3228-39.5856,54.4855
		c2.386-0.7981,5.1458-6.2816,6.7435-8.4409c3.8519-5.2055,7.7651-10.3658,11.7065-15.5037
		c10.1884-13.2816,20.5642-26.4286,31.2775-39.2917c10.2205-12.2712,20.6235-25.265,33.6763-34.6547
		c5.7867-4.1628,12.2213-7.7086,19.1865-9.4194c2.1243-0.5218,9.2777-0.0366,9.7472-2.0585
		c-7.4381,0.1642-15.1769-3.6899-14.8114-12.1129c0.5156-11.8749,10.4884-24.384,16.709-33.8958
		c9.1946-14.0594,18.923-27.7647,28.7617-41.3875c-21.2908,29.3481-42.856,58.9447-64.2145,88.3317
		c0.167-0.2496,0.3405-0.4959,0.5068-0.7458C1029.835,735.3503,1052.0159,704.7421,1073.9937,674.5521z"/>
	<path d="M1080.5715,860.7233c0.8655,0.8751,1.7332,1.7491,2.5997,2.6236C1083.5742,861.9369,1083.2593,860.6266,1080.5715,860.7233
		z"/>
	<path d="M1083.1667,863.3609c0.2708,0.2657,0.5398,0.5332,0.8103,0.7992c-0.2688-0.271-0.5372-0.5422-0.8058-0.8132
		C1083.1699,863.3516,1083.168,863.3563,1083.1667,863.3609z"/>
	<path d="M1080.9517,859.2574c-0.5366,0.3916-1.0732,0.7831-1.6099,1.1747c0.2891-0.1285,0.5449-0.1976,0.7451-0.1777
		C1080.1193,860.2176,1080.5073,859.6498,1080.9517,859.2574z"/>
	<path d="M1187.4414,920.3706c2.3075,1.2255,4.6166,2.4476,6.927,3.6666C1192.0493,922.6042,1189.5229,921.1555,1187.4414,920.3706z
		"/>
	<path d="M1108.6274,974.8198c-1.6287-1.4104-6.3236,2.8849-8.2866,3.7451c-6.3323,2.7747-13.3357,3.8294-20.2046,4.0162
		c-16.1421,0.4388-32.2764-3.9005-47.8193-7.7888c-16.2682-4.0697-32.4263-8.5884-48.5125-13.3237
		c-6.3357-1.8651-12.6614-3.7667-18.9646-5.7392c-2.7117-0.8485-8.7485-3.9445-11.3013-3.1313
		c21.5046,6.9672,43.009,13.9348,64.5134,20.9022c0.0012,0.0004,0.0024,0.0009,0.0037,0.0012
		c-21.5056-6.9679-43.0112-13.9359-64.5171-20.9034c1.4912,2.02,7.5623,2.9462,10.1056,3.7949
		c6.1372,2.048,12.2504,4.1685,18.3511,6.3228c15.7704,5.5688,31.4706,11.3578,47.005,17.5566
		c14.8206,5.9139,30.3862,11.7791,43.3396,21.2844c5.7466,4.217,11.1042,9.2428,14.8804,15.3399
		c1.1516,1.8595,2.9016,8.8222,4.9681,8.6418c-2.4891-7.128-1.1218-15.7346,7.1378-17.931
		c11.4498-3.0446,26.2153,2.4556,37.172,5.4177c16.1925,4.3776,32.2137,9.373,48.1906,14.4993
		c-34.4629-11.139-69.2458-22.4615-103.7671-33.653c0.2917,0.0823,0.5825,0.1718,0.8745,0.2534
		c35.5637,11.5305,71.509,23.1282,106.994,34.6623c-15.837-5.1695-31.6459-10.4327-47.2679-16.2121
		c-10.9832-4.0632-22.9551-7.9695-32.6948-14.6526C1099.3174,991.3971,1099.2908,981.3132,1108.6274,974.8198z"/>
	<path d="M1200.4318,879.8136c4.8807,1.1161,16.838,3.3521,16.8638,10.3579c0.0154,4.1925-4.1249,6.8994-7.1,9.0703
		c0.444,0.1341,0.9524,0.345,1.4519,0.4031c9.501-7.1881,23.1104-9.4415,34.5497-10.8774
		c20.0222-2.5133,40.4689-1.3502,60.5636-0.4244c21.5376,0.9924,43.0601,2.3976,64.5536,4.091
		c6.2366,0.4913,12.4662,1.0387,18.696,1.6068c2.9315,0.2673,9.5289,2.2274,12.0815,0.5642
		c-27.7604-2.4839-55.4777-5.2997-83.1083-8.9886c-14.3586-1.917-29.0015-3.634-43.0614-7.23
		c-4.7009-1.2545-15.3409-3.7837-15.7976-10.1924c-0.2313-3.2465,2.6715-5.9709,5.1161-7.6566
		c-3.2068-0.592-7.2142,3.6137-10.0693,4.9514c-7.2133,3.3799-15.0403,5.4121-22.8722,6.7299
		c-19.0936,3.2127-38.8213,2.045-58.0626,0.9988c-17.0221-0.9255-34.0227-2.1984-51.0122-3.6187
		c10.8909,1.1481,21.7686,2.3757,32.6128,3.6147C1170.7139,874.9135,1185.8127,876.4705,1200.4318,879.8136z"/>
	<path d="M1583.5845,704.1428c-59.4026,19.367-118.8052,38.734-178.2078,58.101c-4.145,1.3514-8.3018,2.7062-12.4536,4.0595
		c0.6475-0.2188,1.3066-0.435,1.9457-0.6554c46.4445-15.1456,92.889-30.2911,139.3336-45.4367
		c50.7622-16.5536,101.5247-33.1072,152.2869-49.6608c13.6072-4.4373,27.2129-8.8787,40.8215-13.3118
		c-4.8289,0.3129-10.2881,3.1617-14.8604,4.6541c-7.6672,2.5026-15.3347,5.0053-23.0022,7.508
		c-19.5615,6.3849-39.1501,12.6881-58.7406,18.9836c-50.4698,16.2188-100.9703,32.3627-151.6473,47.9245
		c-28.1385,8.6407-56.37,17.1721-85.0598,23.8101c-7.8611,1.8188-15.7789,3.5416-23.7771,4.6474
		c-3.8331,0.53-7.5377,0.5088-11.1045,1.8418c0.4727,0,6.7251-0.6838,6.3196,1.4662c-0.5928,3.1437-7.915,5.6196-10.2185,6.6936
		c-18.3894,8.5743-37.957,14.8169-57.1292,21.4099c-31.8806,10.9633-63.8754,21.5975-95.8982,32.1422
		c-36.3306,11.556-72.6035,23.3099-108.7667,35.3334c8.113-3.2115,16.182-6.5375,24.2367-9.7934
		c23.4954-9.435,46.9237-19.0379,70.3555-28.6297c70.1401-28.712,140.1821-57.6697,210.4974-85.9518
		c49.3149-19.8354,98.7047-39.8832,149.0466-56.9973c26.3839-8.9694,53.3468-16.4039,80.8822-20.8532
		c8.7214-1.4092,17.5-2.5303,26.3137-3.1636c4.7664-0.3425,9.8933,0.15,14.3901-1.4318c-44.5828,0-89.1653,0-133.748,0
		c-24.1479,0-48.2959,0-72.444,0c-11.2919,0-22.5839,0-33.8756,0c-8.2896,0-16.5792,0-24.8688,0
		c-2.8021,0-9.7755-1.1102-11.9913,0.9966c6.9155-0.0409,32.9541,0.6266,25.9139,13.4102
		c-3.567,6.4769-10.9779,11.1923-16.9086,15.3534c-7.3423,5.1517-14.9198,9.9688-22.5376,14.7001
		c-32.9023,20.4354-66.7761,39.3103-100.5975,58.1703c-31.1168,17.3518-62.3075,34.5684-93.4943,51.7942
		c-20.2509,11.1854-40.5018,22.3715-60.6903,33.6689c-9.1691,5.131-18.3292,10.2811-27.4288,15.5342
		c-0.9211,0.5317-3.8958,2.0845-7.3435,3.977c8.6624-7.4879,17.2268-15.1202,25.7197-22.8249
		c-8.9398,7.7548-17.8333,15.5638-26.7212,23.377c-0.1998,0.1107-0.3993,0.2209-0.601,0.3333
		c0.9496-1.5811,1.8301-3.1514,2.6681-4.5679c5.3691-9.0757,10.218-18.477,15.0741-27.8336
		c17.9032-34.4952,34.6698-69.6603,54.1891-103.289c12.9236-22.2654,27.4597-47.8785,51.2303-59.994
		c10.9901-5.6014,23.1425-8.7858,35.3174-10.4858c4.4307-0.6187,8.8922-1.0397,13.3622-1.2312
		c1.8351-0.0786,5.1895,0.681,6.2371-1.0889c-15.0844,0-30.1687,0-45.2531,0c-25.0154,0-50.0306,0-75.046,0
		c-10.1052,0-20.2104,0-30.3157,0c-8.3345,0-16.6688,0-25.0032,0c-2.2096,0-3.0271-0.5405-3.6948,1.652
		c-1.3784,4.613-1.9905,9.4521-2.6011,14.213c-4.0454,31.5475-6.4866,63.2907-10.4951,94.841
		c0.1172-0.4339,0.2598-0.7682,0.4408-0.9304c2.5118-2.2501,12.0729,1.9902,14.1071,3.2036
		c4.9255,2.9379,7.8633,8.0055,9.0081,13.5262c1.9719,9.5114,0.4244,19.9628-0.7507,29.4744
		c-2.1237,17.1869-5.5588,34.1371-8.7532,51.1391c-0.3103,0.679-0.6077,1.3563-0.8813,2.0219
		c-0.0396,0.0223-0.0791,0.0448-0.1187,0.0671c-0.0769,0.0257-0.1538,0.0518-0.231,0.0775
		c-0.0217-0.0018-0.0435-0.0036-0.0652-0.0053c-0.6592-0.6514-1.3187-1.3026-1.9795-1.9525
		c0.6438,0.6494,1.2866,1.2991,1.9307,1.9484c-0.0117-0.0009-0.0233-0.0019-0.0349-0.0028
		c-1.0313-0.6158-2.0305-1.2745-2.9818-1.9905c0.1084-0.2497,0.2032-0.5033,0.2758-0.7543
		c-0.2327-0.2283-0.4634-0.4585-0.6963-0.6866c-0.6421-0.6437-1.2841-1.2874-1.926-1.9312
		c-0.1063,0.5963,0.1204,1.2505,0.5811,1.937c-0.7327-0.6405-1.4357-1.3105-2.0983-2.0184
		c0.1049-0.0765,0.2098-0.1531,0.3146-0.2296c-0.1145,0.0509-0.2343,0.111-0.3584,0.1794
		c-2.0637-2.2153-3.7712-4.7527-4.9786-7.6232c-3.8076-9.0529-4.1864-19.625-4.339-29.3036
		c-0.1797-11.3947,0.5291-22.7977,1.5474-34.142c0.4109-4.5754,0.8829-9.145,1.3838-13.7113
		c0.0833-0.7598,0.0702-2.9558,0.1895-5.0283c-0.9714,7.4344-2.0355,14.8574-3.2358,22.2637
		c-1.9258,11.8819-4.2219,23.7478-7.5432,35.3264c-2.8838,10.0534-6.4244,21.0318-13.5934,28.9319
		c-8.0911,8.9163-20.1564,13.1947-31.7242,15.2748c-4.6395,0.8343-9.4917,1.5313-14.2174,1.5313
		c-2.0072,0-7.2799-1.0741-8.0614,0.9601c14.6492,0.9554,29.7018,0,44.3756,0c6.8221,0,13.6444,0,20.4664,0
		c-7.1951,5.2504-14.3904,10.5008-21.5854,15.7512c-7.9241,5.7822-15.8479,11.5643-23.7717,17.3465
		c-2.4225,1.7676-14.4055,9.3571-14.2275,10.9763c1.5654,0.3548,4.2705-2.5221,5.6307-3.5146
		c2.8842-2.1046,5.9694-3.9431,9.0962-5.6624c9.6991-5.3328,20.5979-9.5074,31.7928-9.6512
		c12.1609-0.1563,22.8511,5.8181,32.6312,12.4532c10.3947,7.0521,20.0367,15.2031,29.354,23.6077
		c11.6298,10.4905,22.8185,21.5009,33.8826,32.5848c17.1193,17.1498,33.6486,34.8936,50.9293,51.8812
		c1.6973,1.7114,14.438,16.2959,17.2686,14.2303c6.1672-4.5002,12.3344-9.0005,18.5015-13.5007
		c39.3292-28.6987,78.6567-57.3998,117.9874-86.0966c-2.4-1.1682-11.6581,6.5726-13.9362,7.8658
		c-7.8364,4.4483-16.1073,8.2124-24.7275,10.8648c-27.9938,8.6135-53.8838-1.3889-79.3578-13.0334
		c-11.6526-5.3265-23.031-11.1834-34.3527-17.1569c2.4647,1.5229,4.6943,3.027,5.9011,3.694
		c11.3546,6.2753,22.6335,12.7357,33.4419,19.9216c8.9437,5.9464,19.2336,12.5968,25.2627,21.7358
		c11.4009,17.2817-11.1833,37.2416-23.8953,46.3568c-3.5631-3.5739-7.1671-7.111-10.6609-10.7529
		c-9.0997-9.4855-17.8899-19.2902-26.2878-29.4026c-7.1763-8.6415-15.5049-17.9022-19.9565-28.3557
		c-4.0767-9.5732-2.8716-20.2824,5.4207-27.0882c0.7483-0.6142,2.1497-0.4154,3.8472,0.2247
		c-2.5092-1.3326-5.0179-2.6661-7.5281-3.9979c-19.3137-10.2469-38.2905-21.1321-57.4963-31.5795
		c-11.2827-6.1375-23.1475-13.6338-35.4843-18.1354c0.1342-0.0698,0.2677-0.1414,0.4017-0.2115
		c11.96,1.0785,23.9221,2.152,35.8899,3.1525c-11.6726-1.2306-23.3604-2.3575-35.0417-3.3047
		c1.8882-0.2272,3.3994-0.4211,4.1018-0.4843c9.21-0.8282,18.407-1.8046,27.601-2.7935c17.6648-1.9,35.3167-3.9214,52.9674-5.9478
		c34.8914-4.0056,69.7637-8.1911,104.6709-12.0584c36.7046-4.0664,73.4846-8.2756,110.3208-11.3738
		c20.8696-1.7553,42.6489-4.4417,63.6011-2.5493c7.7839,0.703,18.4836,3.7733,12.9028,13.3925
		c-3.6826,6.3475-9.9712,11.2953-15.8455,15.5278c2.5391,0.3558,5.9719-3.1242,7.947-4.5654
		c5.3857-3.9301,10.7715-7.8601,16.1572-11.7902c10.6288-7.7559,21.2576-15.5118,31.8865-23.2678
		c17.5583-12.8126,35.1168-25.6252,52.6753-38.4378c38.5354-28.1198,77.0717-56.2385,115.6064-84.3592
		c-5.8943,1.6952-11.4019,6.7421-16.6882,9.8922c-10.2649,6.1168-20.9263,11.5668-31.7756,16.566
		c-28.8157,13.2778-59.0022,22.8901-89.4834,31.4987c-78.524,22.1769-158.0985,40.7183-237.4464,59.6981
		c-46.4347,11.107-92.8871,22.14-139.3016,33.3309c-21.5986,5.2075-43.2072,10.3953-64.7336,15.8946
		c-1.4702,0.3756-2.9404,0.7535-4.4104,1.1317c0.0044-0.0023,0.0088-0.0046,0.0132-0.007
		c19.0295-6.176,38.019-12.4905,57.0127-18.7739c24.6548-8.0391,49.3097-16.0782,73.9646-24.1172
		c-0.0013,0.0004-0.0027,0.0008-0.0039,0.0012c52.0369-16.9673,104.0737-33.9347,156.1106-50.9021
		c0.9226-0.3008,1.86-0.6014,2.7927-0.902c-22.5437,7.3474-45.1479,14.7125-67.6927,22.0637
		c-30.4022,9.9131-60.8046,19.8262-91.2067,29.7393c24.4146-7.7209,48.8477-15.3693,73.2876-22.9487
		c20.1917-6.262,40.4622-12.9246,61.1299-17.4229c3.636-0.7914,11.3525-3.5038,15.0427-1.4388
		c2.324,1.3005-3.6968,4.8849-3.9965,5.1036c1.0658-0.298,2.1727-0.6169,3.2904-0.9385c7.053-5.3008,15.8303-8.7551,23.8276-12.2725
		c22.6267-9.9517,45.9169-18.4268,69.2258-26.621c47.9531-16.8578,96.2087-32.8723,144.4458-48.8949
		c26.8989-8.9348,53.8035-17.8572,80.7537-26.6356c7.1699-2.3354,14.3396-4.6707,21.5093-7.0061
		c5.8154-1.8942,13.6907-3.0505,18.8816-6.3467C1679.4072,672.8887,1631.4978,688.5216,1583.5845,704.1428z M1181.1857,968.1042
		c15.6304,11.9987,30.3534,25.3537,44.3893,39.1716c2.9504,2.9819,5.9009,5.9639,8.8513,8.9458
		c-4.7347,3.5152-9.8071,6.6068-15.0514,9.2975c-3.7349,1.9163-10.4022,6.3811-13.9639,4.4846
		c-7.9675-8.9972-17.0333-17.1588-25.7133-25.4604c-16.1174-15.4147-32.2971-30.7535-48.1228-46.4687
		C1147.929,945.7482,1167.5732,957.6545,1181.1857,968.1042z M1098.4283,873.7652c9.6371,5.4841,19.4889,10.5992,29.3135,15.7365
		c18.6071,9.7296,37.3336,19.2316,55.8328,29.1659c-8.0591,5.8806-17.5927,8.278-27.4479,5.5914
		c-10.5867-2.886-19.667-10.7836-27.845-17.7631c-14.0858-12.0215-27.0319-25.2292-40.1646-38.2526
		C1092.3748,870.7959,1097.0913,873.0044,1098.4283,873.7652z M1087.1025,867.6212c0.2568,0.1606,0.5159,0.3201,0.7777,0.4785
		c12.3066,12.4132,24.588,24.8862,35.9462,38.1691c6.6392,7.7643,15.2405,16.9683,17.584,27.2269
		c2.2634,9.907-3.0647,18.176-10.7295,23.769c-14.1204-14.0084-28.1888-28.3683-40.1045-44.3328
		c-5.7535-7.7086-12.2977-16.6724-13.8486-26.4176c-0.6179-3.8824-0.1821-7.7386,0.9304-11.4229c0.5227,0,1.0455,0,1.5684,0
		c0.0715-0.1672,0.3817-0.4673,0.3889-0.48c2.2166-1.3934,4.1002-3.5588,5.7654-5.944c-0.793,2.5025-1.0125,4.5637-0.0708,5.4639
		c0.3256-1.6441,0.6484-3.29,0.9719-4.9354c-0.1375,0.7468-0.2788,1.4929-0.4144,2.24c-0.174,0.8984-0.3479,1.7969-0.5219,2.6954
		C1086.3079,873.5223,1087.4082,869.6294,1087.1025,867.6212z M1138.6215,658.3237c9.2096,0.8968,19.2999,2.7114,27.0272,8.1264
		c8.1201,5.6902,8.9119,14.2092,6.9905,23.2607c-4.8042,22.6306-16.7024,44.3486-27.3411,64.6942
		c-1.854,3.5457-3.708,7.0913-5.562,10.637c-0.6179,1.1819-4.9482-0.0634-5.9976-0.341
		c-9.9994-2.6459-14.8384-12.1271-15.5735-21.8794c-1.7957-23.8199,3.1577-49.2088,7.4595-72.5488
		c0.812-4.1066,1.6241-8.2131,2.4363-12.3197C1128.2036,657.231,1137.7726,658.241,1138.6215,658.3237z M1073.8284,765.4266
		c2.7102-22.5079,5.9639-44.9359,9.0908-67.3887c0.8184-5.8759,1.6348-11.7531,2.364-17.6409
		c0.2998-2.42,0.0408-13.1856,2.0005-14.4651c1.7781-2.2175,7.9431-3.3836,10.5696-4.1577
		c4.0415-1.1911,8.1787-2.0516,12.3435-2.6788c5.6448-0.85,11.3704-1.3076,17.0806-1.2664
		c-3.8406,19.8102-8.3071,39.4604-14.0596,58.8157C1107.5239,735.8018,1098.9238,765.7871,1073.8284,765.4266z M1099.8074,808.6508
		c3.1918-11.2937,6.6964-23.9892,15.2006-32.5393c6.5286-6.5639,14.8845-9.5035,23.9642-9.5035
		c-9.9951,19.0934-20.4197,37.9576-30.6116,56.9462c-5.2513,9.7837-10.5352,19.5649-15.4443,29.5265
		c-0.6616,1.3425-3.4131,5.9941-5.5546,10.6326C1090.9916,845.2464,1094.6898,826.7587,1099.8074,808.6508z M1554.4884,782.5384
		c-40.9631,27.2819-89.2665,37.5272-137.1473,44.8409c-42.8116,6.5395-85.8616,11.3888-128.8923,16.2227
		c8.9534-6.6686,20.8861-10.1666,31.3176-13.5508c22.0942-7.1677,44.8149-12.178,67.5081-17.0256
		c47.6543-10.1799,95.5132-19.4681,143.4165-28.3962c9.4056-1.7286,18.8113-3.4572,28.217-5.1857
		C1557.4631,780.5158,1555.9856,781.5413,1554.4884,782.5384z M1345.1431,803.9015c7.9869-1.925,15.9739-3.85,23.9607-5.775
		c46.1481-11.1226,92.3542-22.1757,138.8467-31.777c10.1826-2.1028,20.3848-4.1359,30.6375-5.8708
		c9.0198-1.5264,18.6365-3.4332,27.7859-2.4791c16.8685,1.7592-0.8777,16.7122-6.813,20.9677
		c-10.259,1.8931-20.5139,3.8107-30.7787,5.6724c-49.1796,8.919-98.4623,17.8207-147.9727,24.7209
		c-10.6339,1.482-21.4154,3.0494-32.1727,2.869c-1.7603-0.0295-11.8937,0.0941-10.1592-4.1044
		C1339.6648,805.2513,1342.4524,804.55,1345.1431,803.9015z M1094.2477,864.5053c81.7484-18.637,163.0131-39.4344,244.5216-59.085
		c-2.6299,1.9189-5.2397,3.5869-8.145,5.0635c-19.9263,10.1282-42.3997,15.5527-64.0355,20.5432
		c-21.6273,4.9886-43.412,9.3087-65.1899,13.5804c-37.108,7.2788-74.3031,14.0872-111.4803,20.9961
		C1091.4099,865.1994,1092.8617,864.8213,1094.2477,864.5053z M1089.4307,865.7355c39.782-7.2924,79.5542-14.6458,119.4346-21.3855
		c19.0999-3.2279,38.2559-6.605,57.5261-8.6639c5.9998-0.641,12.1646-1.2515,18.1998-0.7323c1.9364,0.1666,4.818,0.345,6.233,1.9222
		c2.3376,2.6056-3.3527,5.9767-4.7888,7.0247c-38.1792,4.2832-76.3887,8.2913-114.5817,12.4503
		c-19.6073,2.1351-39.2181,4.2574-58.8011,6.6069c-8.0702,0.9682-16.1462,1.9244-24.1982,3.0463
		C1088.781,865.9139,1089.1074,865.8238,1089.4307,865.7355z M1549.2725,661.2169c7.5935,5.3192-9.0317,14.4183-12.1785,16.2327
		c-17.0171,9.8118-35.4026,17.4693-53.3608,25.3475c-42.4961,18.6429-85.4463,36.2598-128.4124,53.7864
		c-6.9995,2.8552-13.999,5.7104-20.9985,8.5657c-1.5154,0.6182-5.1373,0.3997-5.9885-1.3239
		c-1.9563-3.9606,9.4463-10.3045,11.5066-11.6405c8.8937-5.767,18.335-10.6665,27.7393-15.5376
		c44.6909-23.1486,90.1743-44.8452,135.6624-66.3743c5.0692-2.384,10.1384-4.7681,15.2078-7.1521
		c4.1243-1.9396,8.8381-5.3728,13.4982-5.2832C1537.3958,657.9422,1544.6272,657.9631,1549.2725,661.2169z M1273.0251,762.5117
		c40.9565-22.7896,81.9651-45.5927,124.0022-66.3455c40.7803-20.1323,85.5457-38.711,131.8666-38.3373
		c-7.5909,3.5766-15.182,7.1531-22.7731,10.7297c-44.0427,20.7512-88.3442,41.0099-132.9003,60.6349
		c-22.5867,9.9485-45.2552,19.8748-68.6884,27.6875c-11.4547,3.8191-24.4365,8.6685-36.7456,8.5455
		C1269.5328,764.455,1271.2791,763.4833,1273.0251,762.5117z M1113.7834,851.5771c19.26-10.5785,38.4189-21.3417,57.5811-32.0959
		c20.9211-11.7411,41.8235-23.5159,62.7412-35.2628c7.5609-4.246,15.1223-8.4912,22.6987-12.7091
		c4.5781-2.5486,8.749-6.0526,14.2408-4.6071c4.6643,1.2277,1.1572,5.266-1.0497,7.2133
		c-7.7878,6.8721-17.5927,11.5713-26.7275,16.3796c-18.1635,9.5608-36.6506,18.5165-55.1252,27.4556
		c-30.7859,14.8961-61.7339,29.449-92.6586,44.0522C1101.6704,858.5142,1107.7572,854.887,1113.7834,851.5771z M1092.3826,863.7346
		c0.8615-0.475,1.7207-0.9544,2.5781-1.4365c41.1383-19.3484,82.281-38.7012,123.7534-57.3252
		c21.5681-9.6856,43.2119-19.4379,65.5017-27.3632c14.7367-5.2397,30.7297-11.0017,46.5852-11.0017
		c-6.9847,2.8485-13.9674,5.7021-20.9556,8.5423c-41.8142,16.9944-83.6755,33.8728-125.4985,50.8455
		c-19.593,7.9512-39.1843,15.9074-58.7428,23.9435c-10.9625,4.5043-21.9226,9.0167-32.8368,13.637
		C1092.6418,863.6294,1092.5096,863.6816,1092.3826,863.7346z"/>
	<path d="M1287.6665,1481.4819c31.4431,43.2693,62.886,86.5386,94.3291,129.8079c8.4285,11.5985,16.8569,23.197,25.2854,34.7957
		c-1.791-4.5056-6.188-8.8278-9.022-12.7256c-4.7517-6.5348-9.5032-13.0696-14.2548-19.6045
		c-12.0457-16.5667-24.0223-33.1836-35.9926-49.8047c-30.8933-42.8967-61.7224-85.8469-92.0668-129.1345
		c-17.1383-24.4485-34.2126-49.0133-49.589-74.6216c-4.1602-6.9287-8.2466-13.9407-11.771-21.2194
		c-1.689-3.4882-2.8148-7.0229-5.1846-10.011c0.1445,0.4454,2.7289,6.1951,0.5571,6.4678
		c-3.1797,0.3993-7.7942-5.8147-9.5293-7.6802c-13.8435-14.8844-25.8323-31.6061-38.033-47.8445
		c-20.0017-26.6212-39.7307-53.4484-59.3855-80.3284c-22.4509-31.3925-45.0786-62.6661-67.9458-93.7374
		c5.5178,6.6826,11.1274,13.2906,16.6677,19.9065c16.4473,19.7312,33.036,39.3447,49.6146,58.9655
		c48.7999,57.7546,97.7987,115.3439,146.2438,173.3975c34.1199,40.8871,68.4646,81.7797,100.3135,124.4803
		c16.6887,22.3749,32.097,45.7725,44.8428,70.6348c4.0359,7.8726,7.8154,15.8882,11.1418,24.0879
		c1.799,4.4343,2.915,9.468,5.8091,13.2643c-13.7799-42.4503-27.5493-84.9039-41.3237-127.3558
		c-7.4609-22.9939-14.9219-45.9878-22.3828-68.9817c-3.4888-10.7522-6.9778-21.5044-10.4666-32.2567
		c-2.5612-7.8934-5.1223-15.7867-7.6835-23.6801c-0.8668-2.6716-1.9628-9.6487-4.6537-11.1135
		c2.0151,6.0343,9.3003,28.9861-2.7109,28.9907c-6.95,0.0027-13.9138-5.7449-19.2905-9.6807
		c-7.2214-5.286-14.1448-10.9822-20.9958-16.7356c-30.574-25.6763-59.8052-52.9602-89.0254-80.1531
		c-26.1339-24.3206-52.1617-48.7531-78.1973-73.179c-16.906-15.8608-33.8126-31.7217-50.806-47.4888
		c-7.7181-7.1613-15.4515-14.3081-23.2643-21.3662c-0.7958-0.7189-3.1917-3.0787-6.0559-5.7839
		c9.9237,6.0331,19.9565,11.9268,30.0386,17.7266c-10.2656-6.2153-20.5693-12.3687-30.8757-18.5144
		c-0.1057-0.0989-0.2114-0.198-0.3179-0.2976c3.006,0.7026,6.0242,1.2083,8.6176,1.7465
		c10.5314,2.1857,21.1414,3.9891,31.7483,5.7628c38.2313,6.3932,76.7778,11.5959,114.6141,20.1321
		c24.5543,5.5398,51.9688,11.7773,70.0874,30.5127c8.3903,8.6758,14.9536,19.0471,20.1812,29.8853
		c1.896,3.9313,3.6229,7.9475,5.144,12.0389c0.6384,1.7175,0.939,5.0854,2.9387,5.5389
		c-4.5503-14.0242-9.1011-28.0483-13.6515-42.0725c-7.7401-23.8545-15.4803-47.7089-23.2206-71.5634
		c-3.1013-9.5579-6.2025-19.1157-9.3038-28.6736c-2.6249-8.0896-5.2498-16.1792-7.8746-24.2688
		c-0.7057-2.1748-0.6488-3.5022-2.4348-4.275c-2.5503-1.1035-9.1753,0.9182-11.8185,1.3878
		c-40.2256,7.146-79.7542,17.8123-120.1205,24.2925c-12.1766,1.9547-24.4551,3.5498-36.7855,4.0632
		c-10.7245,0.4464-22.6302,0.5873-32.6263-3.9037c-10.9822-4.934-18.7729-15.0979-24.3191-25.4574
		c-2.2271-4.1595-4.3887-8.5638-5.8484-13.0629c-0.6196-1.9096-1.2275-7.2653-3.4036-7.3784
		c3.619,14.246,9.178,28.2852,13.7124,42.26c2.0514,6.3221,4.1028,12.6444,6.1542,18.9667
		c-6.939-5.036-13.8781-10.0719-20.817-15.1079c-7.9241-5.7507-15.8479-11.5016-23.772-17.2523
		c-2.4189-1.7556-13.3176-10.8104-14.7911-10.1416c0.1532,1.7001,4.2076,3.6467,5.6704,4.7085
		c2.8154,2.0432,5.4308,4.4299,7.9474,6.8252c7.7498,7.3754,14.7634,16.1385,18.3608,26.3303
		c7.8494,22.2383-5.4927,49.355-14.3464,69.415c-6.3489,14.3845-13.3717,28.4882-20.4854,42.5083
		c-11.0229,21.7246-22.8013,43.0635-33.709,64.8462c-0.8911,1.7795-11.28,19.7327-8.8673,21.4836
		c6.0507,4.3914,12.1014,8.7827,18.1522,13.1741c39.4634,28.6404,78.9301,57.2765,118.3903,85.9213
		c0.3834-2.703-10.9122-10.0245-12.9246-11.9098c-6.9908-6.5491-13.3976-13.8057-18.6351-21.8409
		c-15.1433-23.2321-13.2173-50.3446-10.098-76.755c2.1412-18.1304,5.4752-36.0609,8.6819-54.022
		c3.8402-21.5095,8.3917-42.8928,12.4486-64.3622c2.3792-12.5898,5.8447-26.1283,6.3226-39.2054
		c0.0316,0.0309,0.0636,0.0618,0.0952,0.0927c0.043,0.0963,0.0862,0.1935,0.1287,0.2885
		c2.7189,12.0051,5.4445,24.0105,8.2465,35.9973c-2.4424-11.6461-4.9944-23.2743-7.725-34.8369
		c0.9065,2.0085,1.6412,3.5945,1.9146,4.2339c3.7042,8.6655,7.5386,17.2762,11.3868,25.8787
		c7.5098,16.7867,15.1292,33.5244,22.7537,50.2593c14.4517,31.7203,29.0261,63.3855,43.3674,95.156
		c15.8885,35.198,31.9214,70.4512,46.6802,106.1797c4.5504,11.0161,9.0023,22.0837,13.0258,33.3049
		c2.8636,7.9863,6.1283,16.4148,6.9398,24.9288c1.9377,20.3307-21.5342,6.0988-29.4128,0.2753
		c0.4436,2.527,4.813,4.7244,6.7932,6.1616c5.3995,3.9187,10.7991,7.8374,16.1987,11.7561
		c10.6561,7.7336,21.3123,15.4673,31.9683,23.2009c17.6036,12.7758,35.2073,25.5515,52.8108,38.3271
		c38.6345,28.0388,77.2686,56.078,115.9033,84.1165c-3.4753-5.1539-10.0725-8.8983-14.7544-13.0188
		c-9.1664-8.0671-17.802-16.7366-26.0531-25.7332c-21.5859-23.5363-40.08-49.5132-57.7506-76.0491
		c-45.1863-67.8555-87.3193-137.7695-129.7849-207.3497c-24.7925-40.6229-49.5227-81.2841-74.3936-121.8593
		c-11.5852-18.9004-23.1545-37.8167-35.0011-56.5547c-0.5978-0.9453-1.1976-1.8896-1.7965-2.8347
		c11.4463,15.7856,22.999,31.499,34.5273,47.2239c0.0027,0.0037,0.0054,0.0073,0.0081,0.0111
		c-0.0011-0.0016-0.0022-0.0031-0.0034-0.0048c9.481,13.0479,18.962,26.0957,28.443,39.1436
		c6.1083,8.4063,12.2167,16.8127,18.3251,25.219c14.6104,20.501,29.1606,41.0394,43.6537,61.6005
		c12.2062,17.3167,24.8146,34.5846,35.4958,52.894c1.8907,3.2412,6.8462,9.7308,6.046,13.908
		c-0.5022,2.6223-5.7648-2.0004-6.0603-2.2147c0.6132,0.9236,1.2587,1.8799,1.9099,2.8457
		c7.2114,5.0796,13.196,12.37,19.0018,18.8955c16.4362,18.4741,31.6764,38.0293,46.6566,57.6882
		c30.6521,40.2256,60.604,80.9912,90.5577,121.7378c17.0243,23.1584,34.0074,46.3472,50.9261,69.583
		c4.233,5.8215,8.4587,11.6484,12.688,17.4728c3.7971,5.2289,7.5261,12.7841,12.5251,16.9308
		c-29.6772-40.8401-59.35-81.6836-89.025-122.5253c-36.7909-50.6354-73.5819-101.2709-110.3729-151.9061
		c-2.5676-3.5341-5.1423-7.0784-7.7141-10.6182c0.4089,0.5503,0.819,1.1123,1.2271,1.6544
		C1230.1296,1402.3044,1258.8982,1441.8933,1287.6665,1481.4819z M1348.2024,1478.5286
		c-3.5924,7.9291-17.9752-6.4655-20.5178-8.8406c-14.1526-13.1044-26.8726-27.8943-39.6592-42.3005
		c-30.6548-34.5378-60.4967-69.8014-90.2559-105.1108c-4.8809-5.791-9.7617-11.5823-14.6426-17.3734
		c-1.0542-1.2509-1.9701-4.7681-0.5903-6.1088c3.1685-3.0784,12.7329,5.8439,14.6368,7.3931
		c8.238,6.7036,15.8195,14.1943,23.3627,21.6584c35.8457,35.4709,70.5547,72.1414,105.1057,108.8679
		c4.0823,4.3606,8.1646,8.7212,12.2467,13.0817c3.4401,3.6744,7.3835,6.6754,8.7897,11.5569
		C1348.0958,1466.2739,1350.4576,1473.551,1348.2024,1478.5286z M1166.6965,1245.7212
		c34.3506,32.026,68.7301,64.0972,101.4766,97.7764c31.7589,32.6636,63.2737,69.5872,77.2415,113.8345
		c-5.7908-6.177-11.5818-12.354-17.3726-18.531c-33.3228-35.5447-66.2561-71.4873-98.6672-107.8651
		c-16.4495-18.4625-32.903-37.0096-47.5823-56.9343c-7.1753-9.7391-15.7996-20.6102-19.4895-32.3766
		C1163.7675,1242.9904,1165.2319,1244.3557,1166.6965,1245.7212z M1033.4032,1122.0027
		c16.0114,15.0804,32.16,30.0156,48.3026,44.9553c17.4924,16.189,35.01,32.3508,52.5061,48.5359
		c6.3184,5.845,12.6361,11.6907,18.9329,17.5591c3.8318,3.571,8.4397,6.4604,8.7603,12.127
		c0.2728,4.823-4.6643,2.7095-7.1912,1.2095c-8.9492-5.3129-16.4509-13.21-23.8516-20.4374
		c-14.7139-14.3693-28.952-29.2324-43.1705-44.0887c-23.787-24.8541-47.2955-49.9697-70.8461-75.0464
		C1022.3813,1111.9617,1028.0449,1116.9561,1033.4032,1122.0027z M1016.3723,1106.375
		c31.5559,33.705,63.1224,67.4093,94.0684,101.6768c15.8503,17.5519,31.7813,35.1616,46.1292,53.9801
		c9.2563,12.1405,19.3066,25.2529,24.0803,39.965c-4.87-5.7793-9.7441-11.5549-14.6072-17.34
		c-29.0983-34.6151-58.1008-69.3105-87.1812-103.9407c-13.6235-16.2235-27.2512-32.444-40.9448-48.6084
		c-7.6754-9.0605-15.3577-18.1162-23.1287-27.0952c-0.1748-0.202-0.3514-0.4142-0.5273-0.6221
		C1014.962,1105.0548,1015.6658,1105.7163,1016.3723,1106.375z M1057.698,1107.5808c-10.9373-2.0083-21.8821-4.0481-32.8838-5.6768
		c-1.4839-0.2197-6.7709-1.4205-11.8535-2.0415c18.7096-2.1909,37.4597-4.3242,56.2826-4.9885
		c11.7472-0.4146,24.9161-0.9557,35.6776,4.5247c8.2629,4.2078,13.6456,11.2632,16.4531,19.915
		C1100.1066,1115.636,1078.9259,1111.4785,1057.698,1107.5808z M1223.5476,1082.4308c4.3958,17.2798,6.5261,41.9012-16.2009,45.1368
		c-23.1575,3.2969-48.4351-1.8289-71.244-5.7629c-3.9486-0.6812-7.8972-1.3621-11.8458-2.0432
		c-2.426-0.4185-2.3259-2.4744-2.5856-4.8236c-1.1929-10.7966,6.4131-18.849,15.92-22.714
		c22.1348-8.999,47.8347-12.0427,71.3784-15.0829c3.8562-0.4471,7.7124-0.8944,11.5687-1.3416
		C1222.5956,1075.5608,1223.1006,1080.6741,1223.5476,1082.4308z M1167.7435,1044.8589c5.6437-1.0125,11.2871-2.0294,16.9187-3.1075
		c4.2694-0.8175,14.2834-4.8451,17.3157-1.7179c9.202,9.4952,15.3994,22.3525,19.3502,34.8761
		c-20.0507,2.4012-40.1404,4.1569-60.3425,4.5979c-19.9985,0.4365-51.2467,1.3951-58.6176-22.5962
		C1124.1047,1052.5846,1145.9294,1048.7722,1167.7435,1044.8589z M900.2993,1275.7842c-1.5162-1.5125-9.1206-7.7588-8.7566-10.3064
		c-0.0509-1.9783,3.4468-6.1279,4.426-8.041c1.526-2.9819,3.011-5.9855,4.5012-8.9854c2.5039-5.0404,4.9471-10.1108,7.3864-15.1826
		c9.8885-20.561,19.6614-41.1699,29.9254-61.5471c16.7488,11.7659,11.3707,34.0627,5.5764,50.1909
		c-6.6582,18.533-14.8824,36.6162-23.7578,54.1858c-1.9397,3.7175-3.8794,7.4351-5.8191,11.1526
		C908.978,1283.8259,904.4744,1279.9482,900.2993,1275.7842z M989.3557,1218.6448c-0.6306,3.4241-1.271,6.8446-1.9456,10.2605
		c-2.481,12.5615-5.1705,25.1068-8.696,37.422c-2.8918,10.1016-6.0538,21.6366-12.782,29.9684
		c-12.9883,16.084-38.9133,0.7212-51.4966-8.5698c2.3164-4.4811,4.5853-8.99,6.9878-13.426
		c6.2582-11.5549,12.915-22.9124,19.9836-33.9905c6.0544-9.4885,12.3488-20.2751,20.9752-27.7065
		c8.0074-6.8979,18.8214-8.9382,27.8475-2.8171C991.6116,1211.6472,989.7977,1216.2439,989.3557,1218.6448z M1007.864,1114.291
		c-2.282,10.8396-4.1365,21.7736-6.0209,32.6875c-3.5695,20.6747-6.8796,41.3948-10.6726,62.0303
		c-7.3185-5.3115-12.3539-12.5928-13.4882-21.778c-1.4006-11.3436,3.4159-22.8861,7.661-33.1638
		c7.2112-17.4589,16.025-34.142,24.5969-50.9471C1008.8269,1107.8811,1008.16,1112.8846,1007.864,1114.291z M1010.0026,1102.8523
		c-7.5878,14.5652-15.2421,29.113-23.7487,43.1589c-5.0579,8.3513-10.3425,17.3728-17.5823,24.0601
		c-9.2024,8.5-20.7467,7.5522-30.3965,0.5486c8.9421-17.7734,18.2325-35.6068,29.7131-51.8945
		c5.5381-7.8572,12.0223-16.8613,20.7986-21.3596c3.3201-1.7017,6.9121-2.4963,10.5575-2.6409
		c0.0956,0.2947,0.1913,0.5894,0.2867,0.884c0.1814,0.0171,0.5631,0.2206,0.5773,0.2234c1.9366,1.6195,4.4188,2.7765,7.0953,3.6638
		c-2.4585,0.0449-4.3389,0.478-4.8838,1.5969c1.6605-0.1921,3.3219-0.3875,4.9829-0.5818c-0.748,0.0969-1.4965,0.1897-2.2444,0.2883
		c-0.9091,0.1091-1.8181,0.2183-2.7273,0.3274c1.1133,1.0571,5.6761,0.593,7.4086-0.8757c0.0651,0.0173,0.1307,0.0326,0.1959,0.0498
		c0.1655,0.1641,0.329,0.3296,0.4951,0.4932C1010.3452,1101.4662,1010.1685,1102.1547,1010.0026,1102.8523z M1010.5034,1099.6106
		c-0.0287-0.0264-0.0574-0.0527-0.0862-0.0791c-0.0012-0.0017-0.0024-0.0034-0.0037-0.005
		c-0.0022-0.0045-0.0046-0.0089-0.0068-0.0135c0.0266-0.0649,0.0637-0.1273,0.0798-0.1948
		c0.0347-0.1465,0.0813-0.2885,0.1179-0.4343c0.0566,0.2502,0.1134,0.5005,0.1702,0.7506
		C1010.6843,1099.6267,1010.593,1099.6177,1010.5034,1099.6106z M1011.0404,1099.6577c0.0035-0.2046,0.0116-0.4099,0.0137-0.6143
		c-0.0367,0.113-0.0743,0.2234-0.1104,0.3384c-0.0746-0.3112-0.1458-0.6235-0.2206-0.9346
		c0.1045-0.3945,0.2021-0.7917,0.3208-1.1809c0.0081,0.5916,0.0159,1.1831,0.0101,1.7771c0.3112-0.96,0.6447-1.8533,1.004-2.6304
		c-0.2316-0.0422-0.4583-0.0889-0.6772-0.139c0.5955-1.7466,1.3254-3.4344,2.2231-5.0264c0.4006,0.2908,0.8013,0.5815,1.2019,0.8723
		c-0.2849-0.317-0.6854-0.6571-1.1355-0.9978c1.4421-2.5273,3.2759-4.8234,5.5289-6.7802
		c7.297-6.3372,17.0342-9.9622,26.0334-13.094c18.0302-6.2744,36.8318-10.3484,55.5331-14.0632
		c2.161-0.4293,2.1882,11.5319,2.05,12.562c-0.8394,6.2524-4.803,11.2278-10.1711,14.3401
		c-8.3511,4.8418-18.7537,6.566-28.1013,8.3556c-17.1682,3.2869-34.5193,5.2125-51.8446,7.3888
		c-0.3468-0.041-0.6918-0.0791-1.0348-0.114c0.3195-0.63,0.6392-1.2598,0.9574-1.8904c-0.3278,0.6293-0.6559,1.2583-0.9835,1.8877
		C1011.4375,1099.6943,1011.2388,1099.6755,1011.0404,1099.6577z M1046.4448,1178.0964
		c-8.0815-18.0164-16.1519-36.0404-24.4343-53.9657c-3.4551-7.4775-6.8999-14.9652-10.5059-22.3733
		c-0.0016-0.0067-0.0032-0.0133-0.0046-0.0199c0.0007,0.0007,0.0017,0.0015,0.0024,0.0024
		c0.0354,0.0488,0.0709,0.0974,0.1062,0.1462c19.158,35.5425,38.3804,71.0518,57.0642,106.8468
		c8.8867,17.0256,17.8605,34.0635,25.8318,51.5436c2.6968,5.9138,5.41,11.99,6.9968,18.3167
		c0.512,2.0417,1.3489,5.0046,0.3196,7.0364c-1.6462,3.2494-6.7494-1.2153-8.1925-2.2626
		C1077.7783,1248.3318,1062.1829,1213.1821,1046.4448,1178.0964z M1235.2345,1520.4434
		c-38.8529-30.5676-63.6085-73.6633-85.4003-117.1407c-19.4222-38.7496-37.3098-78.2466-55.1776-117.7295
		c9.0941,6.4647,16.0876,16.7435,22.5129,25.6229c13.6271,18.832,25.3988,38.9215,37.0087,59.0339
		c24.3887,42.2499,47.9951,84.9673,71.2725,127.8381c4.5474,8.4255,9.0947,16.8511,13.6422,25.2766
		C1237.7825,1522.4098,1236.4995,1521.4386,1235.2345,1520.4434z M1150.1658,1327.8801
		c4.2982,7.0151,8.5964,14.0303,12.8945,21.0454c24.9508,40.7229,49.8589,81.5234,73.4259,123.0674
		c5.0758,8.9475,10.0919,17.9353,14.8301,27.067c4.1779,8.0516,9.0245,16.6488,10.6334,25.641
		c2.8076,15.6901-16.8586,3.0649-22.2021-0.8812c-5.1748-9.5709-10.3713-19.1302-15.5142-28.7184
		c-23.6204-44.0371-47.2939-88.1653-69.0588-133.157c-4.6775-9.6692-9.531-19.481-12.5083-29.8296
		c-0.5024-1.7467-3.2344-10.5831,1.3018-9.8816C1147.2588,1322.7421,1148.5908,1325.3097,1150.1658,1327.8801z M1014.6687,1106.9424
		c42.9333,72.1383,87.8301,143.1198,131.6919,214.6948c-2.6313-1.9097-5.0175-3.8779-7.3127-6.1854
		c-15.7706-15.8538-27.8514-35.576-39.2662-54.6321c-11.417-19.0597-22.2477-38.4742-33.0306-57.8973
		c-18.5851-33.4771-36.7458-67.1838-55.0005-100.8408c0.0762,0.105,0.1527,0.21,0.2289,0.3152
		C1012.874,1103.9131,1013.7683,1105.4294,1014.6687,1106.9424z M1012.2274,1102.4456c0.0001,0,0,0,0.0001,0
		c5.1875,7.1393,10.3752,14.2786,15.5627,21.4177c2.2185,3.053,4.4369,6.106,6.6553,9.1591
		C1027.0396,1122.8301,1019.6335,1112.6378,1012.2274,1102.4456z M1149.6807,1291.6101
		c-16.8337-23.1669-33.6675-46.3337-50.5013-69.5005c30.0742,41.3883,60.1483,82.7767,90.2225,124.165
		c0.5664,0.7795,1.1367,1.5728,1.7057,2.3611C1177.3112,1329.6436,1163.4805,1310.6013,1149.6807,1291.6101z"/>
	<path d="M1131.3584,1180.2815c5.8539,5.843,11.272,12.3015,15.3137,19.5479c1.5483,2.7759,2.3718,8.6517,5.3354,10.066
		c-0.9218-2.5996-1.6058-6.0038-0.1226-8.525c2.9204-4.9641,11.4663-2.2546,15.5508-0.9353
		c14.453,4.6681,28.1335,12.8582,41.4424,20.019c25.0415,13.4735,49.6184,27.7471,74.0289,42.3232
		c-1.0989-2.8552-7.6085-5.1487-10.15-6.6604c-5.3842-3.2026-10.7561-6.4219-16.1006-9.6907
		c-18.8658-11.5388-37.5811-23.3374-56.0481-35.5051c-16.929-11.1545-34.2771-22.3455-48.9502-36.4392
		c-5.9551-5.72-11.5929-11.9561-15.9484-19.0022c-1.184-1.9153-3.3568-8.917-5.5853-9.1982
		c1.1038,3.4023,2.7051,7.5586,0.7556,10.9946c-3.5526,6.2625-14.8545,1.1477-19.3456-0.7246
		c-13.6525-5.6917-26.6259-13.2292-39.4921-20.4731c-9.7192-5.4719-19.4602-10.9763-29.1631-16.5579
		c13.9623,8.4534,27.8538,17.0222,41.579,25.8533C1100.7662,1155.8667,1117.5724,1166.5208,1131.3584,1180.2815z"/>
	<path d="M999.542,1095.693c0.3491,1.0709,0.9877,3.6241,1.6964,4.8693c-0.5358-1.6511-1.0715-3.3022-1.6073-4.9534
		C999.5613,1095.6023,999.5187,1095.6208,999.542,1095.693z"/>
	<path d="M1001.7539,1101.1931c-0.1738-0.1104-0.3467-0.3342-0.5155-0.6309c0.2421,0.7458,0.484,1.4918,0.7262,2.2378
		C1001.6442,1101.8125,1001.7498,1101.5112,1001.7539,1101.1931z"/>
	<path d="M1013.6493,1095.7974c0.4171-0.8074,0.8344-1.6147,1.2516-2.4221c-1.0817,0.0874-2.0256,1.2708-2.8428,3.0378
		c0.405,0.0736,0.8167,0.1252,1.2094,0.1382C1013.394,1096.2996,1013.5229,1096.0491,1013.6493,1095.7974z"/>
	<path d="M1016.4775,1093.3333c-0.5573-0.4044-1.1145-0.8088-1.6716-1.2133c0.2166,0.2408,0.3694,0.4688,0.4219,0.6715
		C1015.3193,1092.8309,1015.9343,1092.9385,1016.4775,1093.3333z"/>
	<path d="M1014.9298,1093.3962c-0.5487,1.0513-1.0963,2.1038-1.6442,3.1558
		C1014.8154,1096.5978,1016.0022,1096.0056,1014.9298,1093.3962z"/>
	<path d="M1013.2675,1096.5513c-0.2142,0.4258-0.4313,0.8501-0.646,1.2756c0.2213-0.425,0.4427-0.8499,0.6642-1.2749
		C1013.2795,1096.5519,1013.2734,1096.5515,1013.2675,1096.5513z"/>
	<path d="M888.3108,1245.1008c-0.0181,8.0796-0.0095,16.1589-0.0217,24.2349c-0.0012-0.0084-0.0013-0.0155-0.0026-0.024
		c0-0.0001,0-0.0001,0-0.0002c-0.2592-1.7743-2.4962-5.8798-2.9132-6.7368c-10.8787-22.3566-24.6243-43.5134-37.0035-65.0526
		c-4.9176-8.5562-9.7551-17.1656-14.4875-25.8309c0.4323,1.0472,0.569,1.7101,0.3334,1.8815
		c-10.3726,7.5405-22.0925,7.2439-30.8055-2.668c-6.0638-6.7589-10.554-15.0674-14.8854-22.9868
		c-8.0618-14.7402-15.0315-30.0024-22.2103-45.1738c-0.1398-0.6938-0.2891-1.3784-0.4481-2.0452
		c0.1206-0.1685,0.2401-0.3376,0.3606-0.5061c0.0195-0.012,0.0391-0.0237,0.0586-0.0356c1.0093,0.1541,2.0188,0.306,3.0283,0.4575
		c-0.9938-0.1619-1.9868-0.3247-2.981-0.4863c0.0454-0.0278,0.0909-0.0553,0.1362-0.0831c0.1199,0.0072,0.2404,0.0179,0.3579,0.0096
		c1.0287-0.0725,2.0486-0.0768,3.0632-0.049c0.0032,0.0931,0.009,0.1869,0.0117,0.2799c0.0784,0.1506,0.1689,0.3054,0.2711,0.4579
		c0.3726,0.0555,0.7449,0.1125,1.1176,0.1677c0.8979,0.1437,1.7959,0.2872,2.6938,0.4308c-0.2205-0.4791-0.6736-0.8459-1.299-1.123
		c0.8534,0.1045,1.6978,0.2473,2.5336,0.4274c-0.0251,0.0775-0.0502,0.155-0.0753,0.2325c0.0402-0.0693,0.0795-0.1456,0.1188-0.2231
		c3.4602,0.751,6.7618,2.1294,9.7743,4.218c8.0905,5.6093,14.454,13.7919,20.2362,21.6388
		c1.7476,2.3716,16.2903,23.7338,24.1157,36.8621c-1.3279-2.4865-2.6584-4.9716-3.9629-7.4698
		c-10.2422-19.6174-23.1665-42.5757-24.1006-65.199c-0.5574-13.4993,6.7461-25.5823,15.6089-35.1936
		c3.5929-3.8966,7.5347-7.7848,11.8337-10.91c1.6235-1.1803,6.521-3.4125,5.9569-5.5173
		c-12.4133,7.8423-24.0292,17.4675-35.9005,26.0973c-5.2813,3.839-10.5623,7.678-15.8435,11.5171
		c2.6736-8.249,5.3473-16.4979,8.0209-24.7469c3.0267-9.3385,6.0535-18.6771,9.0802-28.0157
		c0.9258-2.8561,6.1812-16.0382,5.0862-17.2494c-1.636,0.7001-2.2961,5.5271-2.884,7.3411
		c-1.198,3.6962-2.9202,7.3126-4.6519,10.7823c-4.8792,9.7766-11.4409,19.282-20.5898,25.5065
		c-9.4424,6.4243-21.1064,7.6527-32.238,7.9923c-12.5538,0.3829-25.1422-0.5668-37.6162-1.9127
		c-15.5701-1.6801-31.0878-4.0404-46.5475-6.5334c-23.9208-3.8577-47.7119-8.5427-71.6684-12.174
		c-2.3848-0.3925-21.2479-4.7408-22.3314-1.3979c-2.3704,7.3136-4.7408,14.6271-7.1112,21.9407
		c-15.0394,46.4019-30.0748,92.8051-45.1186,139.2056c2.0264-0.3601,2.7999-5.2057,3.4886-6.99
		c1.3745-3.5608,2.8998-7.064,4.5595-10.501c4.7294-9.7937,10.5662-19.1777,17.9131-27.2312
		c17.6754-19.3752,44.5161-25.101,69.2546-29.9409c16.9716-3.3206,34.0934-5.6228,51.207-8.0481
		c21.6641-3.0703,43.4307-5.4255,65.1249-8.2725c12.6716-1.6628,26.5876-2.582,39.1571-6.1541
		c0.0081,0.0172,0.0159,0.0344,0.0239,0.0516c-0.0563,0.1122-0.1121,0.2249-0.1681,0.3373
		c-10.3646,6.1934-20.7281,12.3914-31.0525,18.6536c10.166-5.8629,20.2833-11.8191,30.2882-17.9187
		c-1.7612,1.6248-3.1669,2.9521-3.7544,3.4673c-7.1003,6.2231-14.1101,12.5505-21.108,18.8885
		c-14.0155,12.6937-27.9481,25.4794-41.8771,38.2679c-25.6626,23.5614-51.2417,47.2145-76.989,70.6833
		c-28.8255,26.2747-57.661,52.7095-87.3917,78.0166c-8.8822,7.5605-17.8439,15.0448-27.0907,22.1578
		c-6.6125,5.0865-13.6434,10.8622-21.5081,13.8999c-17.8275,6.8857-11.097-19.8264-8.2578-28.3358
		c-2.2676,1.2075-3.0067,6.0444-3.7622,8.3755c-2.059,6.3529-4.1181,12.7058-6.1771,19.0586
		c-4.0635,12.5375-8.1271,25.075-12.1906,37.6123c-6.7128,20.7114-13.4257,41.4229-20.1386,62.1342
		c-14.7327,45.4552-29.464,90.9108-44.1979,136.3656c3.8292-4.905,5.3515-12.3423,7.8243-18.075
		c4.8412-11.2231,10.4191-22.1278,16.4272-32.7679c15.7181-27.8364,34.7137-53.4883,54.4954-78.5302
		c50.5836-64.0344,104.0692-125.8032,157.1357-187.7838c30.9796-36.1837,62.0148-72.3197,92.9267-108.5613
		c14.395-16.8771,28.8096-33.7441,42.9739-50.8157c0.864-1.0414,1.7263-2.0844,2.5889-3.1271
		c-11.7754,16.1807-23.436,32.4512-35.1199,48.6975c-0.0046,0.0063-0.0093,0.0127-0.0139,0.019
		c0.0006-0.0007,0.0011-0.0015,0.0017-0.0022c-9.354,12.8878-18.7079,25.7756-28.0618,38.6636
		c-5.8944,8.1213-11.7888,16.2424-17.6831,24.3638c-15.1934,20.5442-30.4434,41.0413-45.7378,61.4875
		c-12.696,16.9728-25.2208,34.3145-39.3358,50.1421c-2.4898,2.7917-7.1403,9.5269-11.3544,10.0426
		c-2.6481,0.3241,0.128-6.1256,0.2405-6.4725c-0.6893,0.8695-1.3994,1.78-2.1168,2.6987
		c-2.6057,8.4443-7.6923,16.405-12.1089,23.9597c-12.4929,21.3691-26.3857,41.9343-40.4586,62.2839
		c-28.7872,41.6265-58.3064,82.7532-87.8066,123.8756c-16.7657,23.371-33.5732,46.7123-50.4453,70.0067
		c-4.229,5.8308-8.4654,11.656-12.6981,17.4841c-3.8005,5.2328-9.8336,11.1199-12.233,17.1613
		c29.5701-40.7832,59.1822-81.5361,88.7733-122.3041c36.7973-50.6962,73.5946-101.3923,110.3919-152.0884
		c2.6445-3.6433,5.2965-7.2963,7.9455-10.9453c-0.3948,0.5564-0.8007,1.1176-1.1881,1.6707
		c-28.6581,39.488-57.3163,78.976-85.9744,118.464c-31.5172,43.4274-63.0343,86.8549-94.5515,130.2823
		c-8.4539,11.6486-16.9131,23.2935-25.3618,34.9459c3.7324-3.1019,6.4833-8.6208,9.3155-12.5258
		c4.7472-6.5449,9.4944-13.0898,14.2416-19.6348c12.0345-16.5919,24.1383-33.134,36.248-49.6711
		c31.2524-42.679,62.5756-85.3134,94.3687-127.5918c17.9532-23.874,36.0359-47.7236,55.6345-70.2833
		c5.3-6.1008,10.702-12.1575,16.5313-17.7626c2.7928-2.6855,5.8046-4.8501,7.9113-8.0281
		c-0.3745,0.2722-5.0433,4.5096-5.9661,2.5243c-1.3539-2.9128,3.1285-9.2166,4.3719-11.4532
		c9.8853-17.7826,22.0861-34.3716,33.7635-51.0127c19.3577-27.5857,39.0005-54.9724,58.7168-82.3044
		c22.5632-30.6165,44.9642-61.3591,67.1189-92.2548c-4.5576,7.1792-9.0212,14.4183-13.5123,21.5956
		c-13.6837,21.7576-27.2097,43.6146-40.7457,65.4641c-39.8394,64.3074-79.4579,128.7542-119.6891,192.8179
		c-28.3342,45.1189-56.6037,90.4531-87.3651,133.9739c-16.1188,22.8044-33.6058,44.7083-53.3101,64.5334
		c-6.2392,6.2776-12.6938,12.3556-19.4636,18.0598c-3.6611,3.085-8.1027,5.7059-10.8187,9.6345
		c36.1135-26.2521,72.2271-52.504,108.3406-78.756c19.5607-14.2191,39.1212-28.4386,58.6818-42.6578
		c9.1469-6.6492,18.2938-13.2981,27.4406-19.9473c6.7148-4.8812,13.4296-9.7625,20.1445-14.6437
		c2.2721-1.6516,8.5697-4.8556,9.129-7.8683c-5.1135,3.786-24.6912,17.8267-28.4177,6.4083
		c-2.1562-6.6068,1.1539-15.0095,3.2315-21.34c2.7909-8.5039,6.0642-16.8513,9.4144-25.1477
		c14.9515-37.0251,31.8482-73.271,48.6611-109.4785c15.0367-32.3823,30.2128-64.6986,45.3793-97.0205
		c9.8474-20.9862,19.6945-41.9731,29.4243-63.0142c4.418-9.5542,8.8176-19.1187,13.1057-28.7318
		c0.4038-0.9054,1.8289-3.8097,3.4551-7.2904c-2.7251,11.562-5.2742,23.1887-7.7114,34.8342
		c2.797-11.9709,5.5176-23.9602,8.2297-35.9498c0.0767-0.1656,0.1537-0.3329,0.2307-0.5001
		c0.1548,1.7876,0.3539,3.5262,0.5011,5.1215c0.9271,10.0465,2.4323,20.0548,3.9149,30.0314
		c5.7048,38.3916,12.751,76.6392,16.7896,115.2576c2.6799,25.627,6.2234,55.2198-5.5046,79.1815
		c-5.5626,11.3651-13.6846,21.3949-22.7325,30.1705c-3.3026,3.2032-6.755,6.2571-10.356,9.1215
		c-1.4464,1.1504-4.6627,2.5405-4.4718,4.6005c10.7554-7.8179,21.5104-15.6365,32.2656-23.4547
		c20.3868-14.8198,40.7738-29.6398,61.1608-44.4596c8.2125-5.97,16.4252-11.9399,24.6377-17.9099
		c6.87-4.9941,13.7401-9.9882,20.6102-14.9822c2.0042-1.4568,4.0081-2.9136,6.0122-4.3705c0.1532-0.1115,0.1815-0.38,0.1323-0.7401
		C888.3014,1261.2864,888.3073,1253.2004,888.3108,1245.1008z M587.0686,1346.6279c-0.5569,0.7673-1.1256,1.5426-1.6901,2.3151
		c13.5859-18.7133,27.2059-37.4711,40.7908-56.1884C613.1357,1310.7124,600.1022,1328.6702,587.0686,1346.6279z M524.2261,1533.2104
		c-3.7349,2.375-10.043,6.7656-14.7658,5.3105c-7.2915-2.2462,1.3854-18.7864,2.9232-22.0801
		c8.0867-17.521,18.2192-34.201,27.9665-50.8259c23.368-39.8567,47.6774-79.1652,72.056-118.4091
		c3.9984-6.4364,7.9967-12.8728,11.9951-19.3092c0.8613-1.3864,3.9188-3.3484,5.617-2.4465
		c3.8997,2.0708-1.6318,13.9279-2.5178,16.2213c-3.8293,9.9122-8.6084,19.4441-13.3745,28.9314
		c-22.6452,45.0778-46.7803,89.447-71.0181,133.6835c-3.223,5.8485-6.4461,11.697-9.6691,17.5454
		C530.6019,1526.9792,529.1556,1530.0758,524.2261,1533.2104z M675.1239,1294.8669
		c-19.9083,42.7712-39.855,85.5884-61.9014,127.3105c-21.0425,39.822-46.3026,80.634-83.605,107.2998
		c4.0827-7.4207,8.1653-14.8414,12.248-22.2622c23.4927-42.7004,47.4849-85.1533,72.0511-127.2452
		c12.4662-21.3597,25.0109-42.7496,39.4127-62.8805c7.0349-9.8331,14.6973-21.4009,24.7389-28.5481
		C677.0868,1290.6499,676.1053,1292.7583,675.1239,1294.8669z M751.929,1128.9146c-9.3882,19.897-18.5935,39.8806-27.8051,59.8599
		c-9.9808,21.6479-19.9274,43.3115-29.9027,64.9617c-3.6023,7.8185-7.2056,15.6365-10.8367,23.4417
		c-2.2078,4.7452-3.5281,10.0262-8.8145,12.082c-4.5022,1.751-4.0056-3.6167-3.3618-6.4739
		c2.2893-10.1589,7.4785-19.7402,12.0642-29.0198c9.1146-18.4452,18.8453-36.5911,28.5758-54.7162
		c16.192-30.1614,32.7155-60.1409,49.1908-90.1473C757.9346,1115.6195,755.0017,1122.4021,751.929,1128.9146z M761.3152,1108.311
		c-22.2024,40.2917-44.4033,80.5919-67.3258,120.4799c-11.7858,20.5087-23.6014,41.1119-37.0553,60.5851
		c-8.675,12.5563-18.0276,26.1731-30.5349,35.2644c3.9904-6.4222,7.976-12.8474,11.9741-19.2651
		c23.9216-38.3987,47.949-76.7316,71.8895-115.1187c11.2145-17.9819,22.4248-35.9668,33.5607-53.9976
		c6.2401-10.1039,12.4733-20.213,18.6045-30.3835c0.0381-0.0632,0.08-0.1285,0.1184-0.1919
		C762.1323,1106.5576,761.7224,1107.4336,761.3152,1108.311z M763.7102,1103.2502c-5.0153,6.91-10.0305,13.8201-15.0458,20.7302
		c5.0153-6.9102,10.0305-13.8202,15.0458-20.7303C763.7102,1103.2501,763.7103,1103.2502,763.7102,1103.2502z M435.2105,1445.1707
		c16.7986-46.9176,50.5992-84.2284,85.4315-118.6653c30.8652-30.5148,62.9159-59.8025,94.9597-89.0669
		c-3.3406,10.6699-10.9619,20.5227-17.428,29.4009c-13.704,18.8159-29.1802,36.2554-44.7292,53.5479
		c-32.6563,36.3177-66.0006,72.0352-99.5926,107.4875c-6.6102,6.9414-13.2205,13.8828-19.8306,20.8242
		C434.3945,1447.5149,434.7921,1446.3394,435.2105,1445.1707z M593.819,1301.906c-5.2706,6.1779-10.5412,12.3556-15.8118,18.5334
		c-30.4148,35.6495-60.9192,71.2639-92.4079,105.9731c-13.0606,14.3962-26.2854,31.031-42.3251,42.2798
		c-4.9592,3.4778-12.426,6.4812-12.7813-2.1653c-0.2357-5.7332,1.4811-11.6658,3.2789-17.0582
		c6.6151-6.9567,13.2209-13.9222,19.8455-20.8699c34.6875-36.2946,69.5153-72.5717,105.5943-107.4917
		c3.8561-3.7322,33.4886-32.6483,36.5181-26.0026C596.8098,1297.4744,595.286,1300.1865,593.819,1301.906z M764.343,1101.9653
		c-1.5142,1.7167-3.0242,3.437-4.5298,5.1609c-54.9607,62.9269-108.3516,127.2336-162.5731,190.7961
		c1.0048-3.1001,2.1411-5.9855,3.6282-8.8892c10.2099-19.9347,25.2407-37.5576,39.8473-54.3403
		c14.604-16.7797,29.7277-33.1115,44.874-49.4003c26.0796-28.0466,52.5085-55.7614,78.8623-83.5487
		C764.4155,1101.8176,764.3792,1101.8916,764.343,1101.9653z M764.4987,1101.649c-28.2469,29.6378-56.4497,59.3201-85.1091,88.5605
		c-13.4928,13.7662-26.9447,27.682-41.2533,40.6118c-4.488,4.0557-9.1272,8.1832-14.3253,11.3229
		c-1.6671,1.0068-4.1061,2.563-6.1829,2.1238c-3.4271-0.7249-0.791-6.809-0.2452-8.4932
		c28.4353-25.9608,57.0564-51.717,85.575-77.5864c14.6418-13.2817,29.2942-26.5554,43.7893-39.9976
		c5.9844-5.5496,11.9806-11.093,17.8582-16.7581C764.5696,1101.5049,764.5342,1101.577,764.4987,1101.649z M563.9933,1051.2247
		c1.9262-3.9641,5.347-13.0344,9.5559-13.6533c11.7277,2.6194,23.8564,3.9154,35.7539,5.5519
		c22.0919,3.0387,44.19,5.9792,66.2216,9.4327c-5.8346,19.0044-27.8048,21.4225-44.6063,21.0795
		c-20.1893-0.4121-40.4656-2.64-60.4229-5.6455c-4.1403-0.6792-8.2805-1.3585-12.4208-2.0377
		C559.6641,1060.9053,561.6817,1055.9819,563.9933,1051.2247z M654.8116,1115.2157c-7.9855,1.0878-15.9662,2.1859-23.9717,3.119
		c-12.9193,1.5061-25.9155,2.7682-38.9307,2.918c-9.4338,0.1084-21.3554,0.5403-29.7292-4.6102
		c-15.396-9.4696-8.9656-36.0813-4.3547-49.9205c8.3,1.3295,16.5804,2.6702,24.8259,4.3157
		c13.2499,2.644,26.4641,5.6353,39.4483,9.3853c10.478,3.0262,23.274,6.2168,30.1688,15.3857
		c2.8438,3.7817,4.2799,8.405,4.0988,13.1287C656.325,1110.0327,656.1841,1115.0288,654.8116,1115.2157z M751.8656,1101.2776
		c-11.0277,1.2269-22.0118,2.8823-32.9867,4.5037c-20.7878,3.0709-41.5382,6.3989-62.3589,9.2419
		c2.6174-8.0742,7.4263-14.7894,15.0696-18.8959c10.2556-5.5101,22.8042-4.7291,34.05-3.9651
		c19.3917,1.3175,38.536,4.5797,57.7188,7.5455C758.4297,1100.1432,753.3563,1101.1118,751.8656,1101.2776z M764.8162,1099.5972
		c-0.0149-0.0313-0.0298-0.0623-0.0446-0.0935c0.0547,0.031,0.1102,0.0569,0.1653,0.0854
		C764.8967,1099.5916,764.8564,1099.5945,764.8162,1099.5972z M765.1583,1100.3148c-0.0038-0.0082-0.0077-0.0162-0.0116-0.0243
		c0.0095-0.0027,0.0188-0.0059,0.0283-0.0085C765.1696,1100.293,765.1638,1100.3038,765.1583,1100.3148z M765.1044,1097.9326
		c-0.8502-2.6345-1.9166-4.5447-3.2516-4.688c0.7039,1.5256,1.4104,3.0508,2.1165,4.5762
		c-0.3291-0.6885-0.6545-1.3784-0.9851-2.0662c-0.3871-0.8295-0.7742-1.6589-1.1613-2.4883
		c-1.0199,2.0378,0.7744,4.991,2.9171,6.2211c0.0173,0.0372,0.0343,0.0742,0.0515,0.1113c-0.387,0.0253-0.7764,0.0543-1.168,0.0874
		c-17.8215-2.9003-35.6659-5.8613-53.1938-10.1791c-10.1755-2.5066-23.6208-5.1621-30.7201-13.572
		c-5.6929-6.744-5.5519-15.3296-2.9857-23.2471c19.9551,3.1178,40.1014,6.5454,59.377,12.6915
		c9.2832,2.9601,20.288,6.5717,26.895,14.1774c2.1206,2.4412,3.6506,5.2462,4.7271,8.2336
		c-0.4573,0.3325-0.9147,0.665-1.3721,0.9974c0.0415,0.1759-0.0361,0.6022-0.0339,0.618
		C765.2864,1091.9221,765.0356,1094.907,765.1044,1097.9326z M772.9436,1147.7106c-1.4926-11.0094-2.9572-22.0363-4.8361-32.9879
		c-0.2443-1.4236-0.7545-6.7307-1.7394-11.7139c7.687,16.6105,15.323,33.2737,21.7202,50.4199
		c7.4836,20.0579,13.6791,43.7312-6.499,58.3994C778.4741,1190.4878,775.8409,1169.0811,772.9436,1147.7106z M852.3593,1294.8533
		c-13.9125,9.7007-39.5822,23.3687-50.7838,3.2905c-5.595-10.0283-8.2842-21.8257-10.7717-32.9346
		c-2.7373-12.2235-4.819-24.5847-6.7485-36.9578c-0.564-3.6168-1.0719-7.2427-1.6023-10.8646
		c-0.478-3.2643-1.2749-4.114,1.6785-5.767c10.2019-5.7095,21.1184-1.2004,28.2585,7.2252
		c15.4448,18.2253,26.3495,41.6847,36.5767,63.1031c1.2659,2.7424,2.532,5.4846,3.7979,8.2271
		C854.0132,1292.8801,854.8369,1293.1257,852.3593,1294.8533z M876.4546,1272.4734c-2.8254,3.6704-5.9767,7.0876-9.3113,10.2993
		c-3.8206,3.6797-7.8867,7.1342-12.2048,10.2186c-8.5281-18.2931-16.4546-36.8245-23.1674-55.8724
		c-6.6359-18.8302-17.296-48.2218,3.2148-62.6458c11.2875,20.2251,22.0632,40.7188,32.9828,61.1437
		c2.7183,5.0846,5.4382,10.1698,8.2429,15.2074c1.6023,2.8778,6.5715,8.8977,6.361,12.0616
		C882.3799,1265.7795,878.1614,1270.2559,876.4546,1272.4734z"/>
	<path d="M1033.3008,1213.8197c0.3911,4.8739,1.7137,16.2343-4.6445,18.4357c-3.9839,1.3793-7.8846-1.7639-10.8654-3.9271
		c0.0087,0.4637-0.0359,1.0121,0.0623,1.5048c10.1168,7.0818,16.5797,19.9397,21.5352,30.7922
		c8.4083,18.4141,13.5625,38.3105,18.8575,57.7881c5.5127,20.2783,10.6584,40.6598,15.5319,61.1008
		c1.4508,6.0857,2.8463,12.182,4.222,18.2849c0.6475,2.8718,0.8116,9.7531,3.1799,11.6703
		c-6.2939-27.6998-12.2482-55.4642-17.2979-83.4225c-2.6785-14.8297-6.2034-30.3147-6.1919-45.4578
		c0.0033-4.2834,0.0259-12.9888,5.4127-14.5276c2.9174-0.8335,6.1005,0.946,8.3451,2.6676c-0.4243-3.2316-5.6479-5.7457-7.7971-8.05
		c-5.4287-5.8209-9.7637-12.6399-13.4216-19.6823c-8.9229-17.179-13.876-36.3064-18.7964-54.9336
		c-4.2466-16.0768-8.1721-32.2361-11.9575-48.4292c2.261,10.7805,4.4387,21.5723,6.5964,32.3324
		C1028.9722,1184.4309,1032.1188,1199.0885,1033.3008,1213.8197z"/>
	<path d="M726.2404,1241.1836c-3.6572,7.0486-7.9916,13.8743-13.4203,19.7025c-2.1492,2.3075-7.3728,4.8265-7.7964,8.0604
		c2.1367-1.6432,5.0361-3.2805,7.8311-2.795c5.3199,0.9242,5.7739,8.8491,5.9033,12.9369
		c0.4792,15.1292-3.2283,30.8325-5.8774,45.6338c-5.1014,28.5021-11.1592,56.8022-17.5658,85.0344
		c2.3737-1.9279,2.5364-8.8271,3.1854-11.7102c1.3756-6.1093,2.7705-12.2122,4.2213-18.3042
		c5.121-21.5048,10.5354-42.9468,16.3776-64.2673c5.3552-19.543,10.6149-39.4956,19.4617-57.8057
		c3.5891-7.4287,7.7668-14.7162,13.1121-21.0354c1.4525-1.7173,7.4319-5.9495,7.0073-8.1523
		c-2.9043,2.1113-6.4314,4.9745-10.3219,4.093c-6.6976-1.5176-5.6302-13.0725-5.2499-17.8347
		c1.0334-14.5203,4.1641-28.9924,7.0005-43.2399c2.2053-11.0763,4.438-22.1852,6.7603-33.2814
		c-3.7493,16.0464-7.6365,32.0593-11.8396,47.9912C740.1117,1204.8499,735.1611,1223.99,726.2404,1241.1836z"/>
	<path d="M766.2384,1088.7327c-0.9469,0.6865-3.2491,2.1289-4.2421,3.2207c1.4515-1.0552,2.9031-2.1104,4.3545-3.1654
		C766.3347,1088.7198,766.3025,1088.686,766.2384,1088.7327z"/>
	<path d="M761.5497,1092.6436c0.0558-0.2019,0.2162-0.4366,0.4467-0.6902c-0.6504,0.4729-1.301,0.9457-1.9514,1.4186
		C760.8762,1092.7676,761.2532,1092.7393,761.5497,1092.6436z"/>
	<path d="M829.3887,1163.3746c1.4844,2.7792,2.9832,5.5507,4.4935,8.3164C833.1365,1169.8848,831.5088,1166.9315,829.3887,1163.3746
		z"/>
	<path d="M894.5641,1158.2446c4.225-8.6674,13.3395-8.4418,20.2699-3.177c0.8123-1.9221-5.135-5.584-6.5542-7.2451
		c-4.4363-5.1929-7.4965-11.4716-9.7244-17.8876c-5.2515-15.1232-6.0957-31.6481-7.1809-47.5002
		c-1.1462-16.7429-1.8325-33.5195-2.2911-50.2946c-0.1807-6.6073-0.3235-13.2161-0.3922-19.8256
		c-0.0297-2.8466,1.0526-9.5402-0.5078-11.7249c0.0095,22.4407,0.0176,44.8813,0.0262,67.322c0,0.0037-0.0001,0.0074-0.0001,0.0111
		c-0.0084-22.4445-0.0166-44.8887-0.0261-67.3331c-1.5587,2.186-0.4712,8.8786-0.4985,11.7253
		c-0.0637,6.6096-0.2015,13.2186-0.3772,19.8261c-0.4458,16.7756-1.1195,33.5531-2.2533,50.2972
		c-1.0736,15.8541-1.906,32.3811-7.1483,47.5089c-2.2245,6.4194-5.2817,12.7017-9.7161,17.8989
		c-1.4183,1.6624-7.3658,5.3311-6.5522,7.2528c6.3428-4.8258,15.1609-5.8051,19.6514,1.9625
		c6.0872,10.5295,5.405,26.1707,5.9521,37.8926c0.7876,16.8733,0.9576,33.7711,1.0061,50.6669
		c-0.0432-36.8464-0.0054-74.08-0.0133-111.0116c0.0117,0.2998,0.0162,0.6008,0.0286,0.9006
		c0.0068,36.4257,0.0641,73.2136,0.0482,109.5908c0.0375-16.7227,0.199-33.447,0.9651-50.1479
		C889.8083,1183.3447,889.3394,1168.9623,894.5641,1158.2446z"/>
</g>
</svg>
